<svg width="200" height="53" viewBox="0 0 200 53" fill="none" xmlns="http://www.w3.org/2000/svg">
<path d="M74.8716 52.93C74.8224 52.9317 74.7738 52.9195 74.7313 52.8947C74.6888 52.87 74.6542 52.8336 74.6316 52.79C74.6097 52.7502 74.5982 52.7054 74.5982 52.66C74.5982 52.6145 74.6097 52.5698 74.6316 52.53L76.7416 47.53C76.7573 47.4737 76.7915 47.4244 76.8386 47.3899C76.8858 47.3554 76.9432 47.3378 77.0016 47.34C77.0613 47.3373 77.1201 47.3545 77.169 47.3889C77.2179 47.4233 77.2539 47.4729 77.2716 47.53L79.3916 52.53C79.4135 52.5698 79.4249 52.6145 79.4249 52.66C79.4249 52.7054 79.4135 52.7502 79.3916 52.79C79.3685 52.8326 79.3335 52.8676 79.2909 52.8906C79.2483 52.9137 79.1999 52.9239 79.1516 52.92C79.102 52.929 79.0512 52.929 79.0016 52.92C78.9575 52.8861 78.9231 52.8413 78.9016 52.79L76.8916 48H77.1216L75.1216 52.77C75.1001 52.8213 75.0656 52.8661 75.0216 52.9C74.9738 52.9191 74.923 52.9293 74.8716 52.93Z" fill="#121617"/>
<path d="M80.6409 52.93C80.5918 52.9317 80.5432 52.9195 80.5007 52.8947C80.4582 52.87 80.4236 52.8336 80.4009 52.79C80.3791 52.7502 80.3676 52.7054 80.3676 52.66C80.3676 52.6145 80.3791 52.5698 80.4009 52.53L82.5009 47.53C82.5186 47.4729 82.5547 47.4233 82.6035 47.3889C82.6524 47.3545 82.7113 47.3373 82.7709 47.34C82.8303 47.339 82.8884 47.3568 82.9369 47.391C82.9855 47.4251 83.0219 47.4738 83.0409 47.53L85.1509 52.53C85.1689 52.572 85.1763 52.6178 85.1725 52.6633C85.1688 52.7088 85.1539 52.7527 85.1292 52.7912C85.1046 52.8297 85.0709 52.8615 85.0311 52.884C84.9913 52.9064 84.9466 52.9188 84.9009 52.92C84.8481 52.9302 84.7938 52.9302 84.7409 52.92C84.6967 52.8837 84.6594 52.8397 84.6309 52.79L82.6309 48.02H82.8609L80.8609 52.79C80.8425 52.843 80.8074 52.8886 80.7609 52.92C80.7216 52.9291 80.6812 52.9324 80.6409 52.93ZM81.1109 51.6L81.3209 51.12H84.2309L84.4409 51.6H81.1109Z" fill="#121617"/>
<path d="M86.9902 52.9299C86.9065 52.9308 86.8252 52.9025 86.7602 52.8499C86.7303 52.8262 86.7066 52.7956 86.691 52.7608C86.6753 52.726 86.6682 52.688 86.6702 52.6499V47.6499C86.6688 47.6128 86.675 47.5758 86.6886 47.5412C86.7022 47.5065 86.7228 47.4751 86.7491 47.4488C86.7753 47.4225 86.8068 47.402 86.8414 47.3884C86.876 47.3748 86.913 47.3685 86.9502 47.3699H89.9502C90.0216 47.3704 90.0899 47.3992 90.1402 47.4499C90.1644 47.475 90.1832 47.5048 90.1953 47.5375C90.2073 47.5703 90.2124 47.6051 90.2102 47.6399C90.213 47.6748 90.2083 47.7099 90.1962 47.7427C90.1841 47.7755 90.165 47.8053 90.1402 47.8299C90.0899 47.8807 90.0216 47.9095 89.9502 47.9099H87.2502V49.6599H88.9902C89.2997 49.6548 89.6056 49.727 89.8802 49.8699C90.1353 50.0002 90.3473 50.2016 90.4902 50.4499C90.6455 50.7022 90.7254 50.9937 90.7202 51.2899C90.7253 51.5925 90.6456 51.8904 90.4902 52.1499C90.3474 52.4009 90.1357 52.6056 89.8802 52.7399C89.6056 52.8829 89.2997 52.9551 88.9902 52.9499L86.9902 52.9299ZM87.2302 52.3899H88.9902C89.2022 52.3971 89.4125 52.3489 89.6002 52.2499C89.7713 52.1572 89.9132 52.0187 90.0102 51.8499C90.1082 51.6652 90.1595 51.4591 90.1595 51.2499C90.1595 51.0407 90.1082 50.8347 90.0102 50.6499C89.9139 50.4832 89.7715 50.3478 89.6002 50.2599C89.41 50.1689 89.2009 50.1243 88.9902 50.1299H87.2502L87.2302 52.3899Z" fill="#121617"/>
<path d="M95.1595 53C94.7595 53.0072 94.362 52.9358 93.9895 52.79C93.6539 52.6495 93.3483 52.4458 93.0895 52.19C92.8291 51.9312 92.6248 51.6214 92.4895 51.28C92.2096 50.5458 92.2096 49.7343 92.4895 49C92.6248 48.6587 92.8291 48.3489 93.0895 48.09C93.3483 47.8342 93.6539 47.6305 93.9895 47.49C94.7272 47.2104 95.5418 47.2104 96.2795 47.49C96.6134 47.6338 96.9184 47.8371 97.1795 48.09C97.44 48.3489 97.6442 48.6587 97.7795 49C98.0595 49.7343 98.0595 50.5458 97.7795 51.28C97.6442 51.6214 97.44 51.9312 97.1795 52.19C96.9184 52.4429 96.6134 52.6462 96.2795 52.79C95.923 52.9309 95.5428 53.0022 95.1595 53ZM95.1595 52.47C95.4709 52.4715 95.7797 52.4138 96.0695 52.3C96.3478 52.1857 96.5996 52.0155 96.8095 51.8C97.1218 51.4573 97.3322 51.0342 97.417 50.5784C97.5018 50.1226 97.4577 49.6521 97.2895 49.22C97.1774 48.9458 97.0118 48.6967 96.8023 48.4873C96.5928 48.2778 96.3437 48.1122 96.0695 48C95.7797 47.8863 95.4709 47.8286 95.1595 47.83C94.8416 47.8275 94.526 47.8852 94.2295 48C93.9543 48.1145 93.7057 48.2848 93.4995 48.5C93.288 48.7091 93.1242 48.9616 93.0195 49.24C92.7794 49.8299 92.7794 50.4902 93.0195 51.08C93.1293 51.3564 93.2927 51.6083 93.5004 51.8212C93.7081 52.034 93.9559 52.2036 94.2295 52.32C94.5273 52.428 94.8428 52.4789 95.1595 52.47Z" fill="#121617"/>
<path d="M100.159 52.93C100.122 52.9314 100.085 52.9252 100.05 52.9116C100.015 52.898 99.9839 52.8774 99.9576 52.8512C99.9314 52.8249 99.9108 52.7934 99.8972 52.7588C99.8836 52.7242 99.8773 52.6872 99.8787 52.65V47.65C99.8773 47.6129 99.8836 47.5759 99.8972 47.5413C99.9108 47.5066 99.9314 47.4752 99.9576 47.4489C99.9839 47.4226 100.015 47.4021 100.05 47.3885C100.085 47.3749 100.122 47.3686 100.159 47.37H101.589C101.917 47.3643 102.241 47.4435 102.529 47.6C102.796 47.752 103.017 47.9731 103.169 48.24C103.324 48.5286 103.404 48.8522 103.399 49.18C103.403 49.5047 103.324 49.8249 103.169 50.11C103.017 50.377 102.796 50.5981 102.529 50.75C102.241 50.9066 101.917 50.9858 101.589 50.98H100.439V52.67C100.44 52.7072 100.434 52.7442 100.42 52.7788C100.407 52.8134 100.386 52.8449 100.36 52.8712C100.334 52.8974 100.302 52.918 100.268 52.9316C100.233 52.9452 100.196 52.9514 100.159 52.95V52.93ZM100.439 50.42H101.589C101.819 50.4252 102.046 50.37 102.249 50.26C102.438 50.158 102.591 50.0011 102.689 49.81C102.8 49.612 102.856 49.3872 102.849 49.16C102.855 48.9297 102.8 48.7018 102.689 48.5C102.588 48.3111 102.435 48.1549 102.249 48.05C102.046 47.9401 101.819 47.8849 101.589 47.89H100.439V50.42Z" fill="#121617"/>
<path d="M104.458 52.93C104.409 52.9317 104.36 52.9195 104.318 52.8947C104.275 52.87 104.241 52.8336 104.218 52.79C104.196 52.7502 104.185 52.7054 104.185 52.66C104.185 52.6145 104.196 52.5698 104.218 52.53L106.318 47.53C106.337 47.4738 106.374 47.4251 106.422 47.391C106.471 47.3568 106.529 47.339 106.588 47.34C106.648 47.3373 106.707 47.3545 106.755 47.3889C106.804 47.4233 106.84 47.4729 106.858 47.53L108.968 52.53C108.986 52.572 108.993 52.6178 108.99 52.6633C108.986 52.7088 108.971 52.7527 108.946 52.7912C108.922 52.8297 108.888 52.8615 108.848 52.884C108.808 52.9064 108.764 52.9188 108.718 52.92C108.669 52.9315 108.617 52.9315 108.568 52.92C108.519 52.8891 108.48 52.8437 108.458 52.79L106.458 48.02H106.678L104.678 52.79C104.653 52.8417 104.615 52.8864 104.568 52.92C104.532 52.9295 104.495 52.9329 104.458 52.93ZM104.928 51.6L105.148 51.12H108.048L108.268 51.6H104.928Z" fill="#121617"/>
<path d="M109.588 47.86C109.521 47.8597 109.457 47.8348 109.408 47.79C109.383 47.767 109.363 47.7392 109.349 47.7082C109.335 47.6773 109.328 47.6439 109.328 47.61C109.327 47.5746 109.334 47.5394 109.348 47.5068C109.362 47.4741 109.382 47.4446 109.408 47.42C109.431 47.396 109.459 47.3773 109.49 47.3652C109.521 47.3531 109.554 47.348 109.588 47.35H113.588C113.623 47.347 113.658 47.3516 113.691 47.3636C113.724 47.3756 113.754 47.3946 113.778 47.4194C113.803 47.4442 113.822 47.4741 113.834 47.507C113.846 47.54 113.851 47.5751 113.848 47.61C113.849 47.6433 113.844 47.6764 113.832 47.7074C113.82 47.7384 113.801 47.7665 113.778 47.79C113.725 47.8354 113.657 47.8603 113.588 47.86H109.588ZM111.588 52.93C111.551 52.9314 111.513 52.9252 111.479 52.9116C111.444 52.898 111.413 52.8774 111.387 52.8511C111.36 52.8249 111.34 52.7934 111.326 52.7588C111.313 52.7242 111.306 52.6872 111.308 52.65V47.35H111.868V52.65C111.867 52.7243 111.838 52.7956 111.788 52.85C111.759 52.8785 111.724 52.9003 111.686 52.9141C111.648 52.9279 111.608 52.9334 111.568 52.93H111.588Z" fill="#121617"/>
<path d="M117.577 53C117.184 53.0045 116.793 52.9332 116.427 52.79C116.089 52.6472 115.781 52.4439 115.517 52.19C115.263 51.928 115.062 51.6189 114.927 51.28C114.647 50.5458 114.647 49.7342 114.927 49C115.062 48.6611 115.263 48.352 115.517 48.09C115.781 47.8361 116.089 47.6327 116.427 47.49C116.793 47.3467 117.184 47.2754 117.577 47.28C117.964 47.2765 118.347 47.3478 118.707 47.49C119.046 47.6302 119.355 47.8339 119.617 48.09C119.877 48.3488 120.082 48.6586 120.217 49C120.497 49.7342 120.497 50.5458 120.217 51.28C120.082 51.6214 119.877 51.9311 119.617 52.19C119.355 52.4461 119.046 52.6497 118.707 52.79C118.347 52.9322 117.964 53.0035 117.577 53ZM117.577 52.47C117.888 52.4707 118.197 52.413 118.487 52.3C118.765 52.1857 119.017 52.0155 119.227 51.8C119.539 51.4573 119.75 51.0342 119.834 50.5784C119.919 50.1225 119.875 49.6521 119.707 49.22C119.595 48.9454 119.432 48.6943 119.227 48.48C119.017 48.2645 118.765 48.0943 118.487 47.98C118.197 47.8669 117.888 47.8093 117.577 47.81C117.259 47.8075 116.943 47.8652 116.647 47.98C116.372 48.0945 116.123 48.2647 115.917 48.48C115.705 48.6912 115.539 48.9429 115.427 49.22C115.2 49.8123 115.2 50.4677 115.427 51.06C115.541 51.3358 115.708 51.587 115.917 51.8C116.123 52.0152 116.372 52.1855 116.647 52.3C116.943 52.4148 117.259 52.4725 117.577 52.47Z" fill="#121617"/>
<path d="M122.576 52.93C122.539 52.9314 122.502 52.9252 122.467 52.9116C122.433 52.898 122.401 52.8774 122.375 52.8512C122.349 52.8249 122.328 52.7934 122.315 52.7588C122.301 52.7242 122.295 52.6872 122.296 52.65V47.65C122.295 47.6129 122.301 47.5759 122.315 47.5413C122.328 47.5066 122.349 47.4752 122.375 47.4489C122.401 47.4226 122.433 47.4021 122.467 47.3885C122.502 47.3749 122.539 47.3686 122.576 47.37H123.986C124.314 47.3643 124.638 47.4435 124.926 47.6C125.191 47.7547 125.411 47.9751 125.566 48.24C125.722 48.5286 125.801 48.8522 125.796 49.18C125.801 49.5047 125.721 49.8249 125.566 50.11C125.411 50.375 125.191 50.5954 124.926 50.75C124.64 50.9135 124.316 50.9997 123.986 51H122.836V52.69C122.838 52.7272 122.831 52.7642 122.818 52.7988C122.804 52.8334 122.784 52.8649 122.757 52.8912C122.731 52.9174 122.7 52.938 122.665 52.9516C122.63 52.9652 122.593 52.9714 122.556 52.97L122.576 52.93ZM122.856 50.42H123.986C124.213 50.4268 124.438 50.3715 124.636 50.26C124.825 50.1554 124.981 49.9994 125.086 49.81C125.198 49.612 125.253 49.3872 125.246 49.16C125.253 48.9297 125.197 48.7018 125.086 48.5C124.979 48.3126 124.824 48.1572 124.636 48.05C124.438 47.9386 124.213 47.8833 123.986 47.89H122.836L122.856 50.42Z" fill="#121617"/>
<path d="M127.686 52.93C127.649 52.9305 127.612 52.9238 127.578 52.91C127.543 52.8963 127.512 52.8759 127.486 52.85C127.456 52.8257 127.433 52.7951 127.417 52.7604C127.402 52.7258 127.394 52.688 127.396 52.65V47.65C127.394 47.612 127.402 47.5743 127.417 47.5396C127.433 47.505 127.456 47.4743 127.486 47.45C127.512 47.4241 127.543 47.4037 127.578 47.39C127.612 47.3763 127.649 47.3695 127.686 47.37C127.721 47.3697 127.756 47.3766 127.789 47.3904C127.822 47.4041 127.851 47.4244 127.876 47.45C127.901 47.4764 127.922 47.5077 127.936 47.542C127.949 47.5763 127.956 47.6131 127.956 47.65V52L131.526 47.44C131.551 47.4068 131.585 47.3803 131.623 47.3629C131.662 47.3455 131.704 47.3376 131.746 47.34C131.82 47.341 131.891 47.3695 131.946 47.42C131.97 47.4469 131.989 47.4785 132.001 47.5129C132.013 47.5472 132.018 47.5837 132.016 47.62V52.62C132.018 52.6564 132.013 52.6928 132.001 52.7272C131.989 52.7615 131.97 52.7931 131.946 52.82C131.891 52.8705 131.82 52.899 131.746 52.9C131.708 52.9017 131.671 52.8955 131.637 52.8817C131.602 52.8679 131.571 52.8469 131.546 52.82C131.518 52.7952 131.496 52.7642 131.482 52.7295C131.468 52.6948 131.462 52.6573 131.466 52.62V48.27L127.886 52.84C127.862 52.8679 127.831 52.8887 127.796 52.9L127.686 52.93Z" fill="#121617"/>
<path d="M134.285 52.93C134.233 52.9382 134.181 52.93 134.134 52.9067C134.087 52.8834 134.049 52.8461 134.025 52.8C133.994 52.7562 133.977 52.7038 133.977 52.65C133.977 52.5963 133.994 52.5439 134.025 52.5L135.335 50.44L135.895 50.59L134.485 52.79C134.459 52.8304 134.425 52.8646 134.385 52.89C134.355 52.9111 134.321 52.9248 134.285 52.93ZM137.445 52.93C137.408 52.9315 137.371 52.9252 137.336 52.9116C137.301 52.898 137.27 52.8774 137.244 52.8512C137.217 52.8249 137.197 52.7934 137.183 52.7588C137.17 52.7242 137.163 52.6872 137.165 52.65V50.74H135.725V50.67C135.425 50.6732 135.129 50.6009 134.865 50.46C134.605 50.3379 134.387 50.1435 134.235 49.9C134.074 49.6537 133.99 49.3645 133.995 49.07C133.99 48.7581 134.069 48.4505 134.225 48.18C134.381 47.9238 134.601 47.7134 134.865 47.57C135.156 47.4211 135.478 47.3455 135.805 47.35H137.445C137.482 47.3495 137.519 47.3563 137.553 47.37C137.587 47.3838 137.618 47.4042 137.645 47.43C137.673 47.4548 137.695 47.4858 137.709 47.5206C137.722 47.5553 137.728 47.5928 137.725 47.63V52.63C137.728 52.6673 137.722 52.7048 137.709 52.7395C137.695 52.7743 137.673 52.8053 137.645 52.83C137.62 52.8596 137.59 52.8837 137.555 52.9009C137.521 52.9181 137.483 52.928 137.445 52.93ZM135.805 50.22H137.165V47.89H135.805C135.58 47.8818 135.356 47.9299 135.155 48.03C134.966 48.1166 134.809 48.2599 134.705 48.44C134.598 48.6328 134.543 48.8498 134.545 49.07C134.537 49.2782 134.591 49.4841 134.699 49.662C134.808 49.8398 134.966 49.9818 135.155 50.07C135.357 50.1689 135.58 50.2202 135.805 50.22Z" fill="#121617"/>
<path d="M142.984 52.93C142.947 52.9314 142.91 52.9251 142.875 52.9116C142.84 52.898 142.809 52.8774 142.783 52.8511C142.756 52.8249 142.736 52.7934 142.722 52.7588C142.709 52.7242 142.702 52.6872 142.704 52.65V47.65C142.703 47.5941 142.719 47.5391 142.75 47.4923C142.78 47.4455 142.824 47.409 142.876 47.3875C142.928 47.366 142.985 47.3604 143.039 47.3716C143.094 47.3827 143.145 47.41 143.184 47.45C143.212 47.4748 143.234 47.5058 143.247 47.5405C143.261 47.5753 143.267 47.6128 143.264 47.65V49.88H144.394V50.38H143.264V52.67C143.267 52.7073 143.261 52.7448 143.247 52.7795C143.234 52.8142 143.212 52.8452 143.184 52.87C143.127 52.9151 143.056 52.9366 142.984 52.93ZM146.594 52.86C146.569 52.8843 146.539 52.9031 146.506 52.9151C146.473 52.9272 146.439 52.9323 146.404 52.93C146.366 52.9312 146.328 52.9237 146.293 52.9081C146.259 52.8925 146.228 52.8692 146.204 52.84L143.894 50.09L145.984 47.44C146.036 47.3893 146.106 47.361 146.179 47.361C146.252 47.361 146.321 47.3893 146.374 47.44C146.399 47.4635 146.42 47.492 146.434 47.5239C146.448 47.5557 146.456 47.5902 146.456 47.625C146.456 47.6599 146.448 47.6943 146.434 47.7262C146.42 47.758 146.399 47.7866 146.374 47.81L144.524 50.08L146.584 52.51C146.609 52.5347 146.628 52.5645 146.64 52.5973C146.652 52.6301 146.657 52.6652 146.654 52.7C146.642 52.7597 146.615 52.8151 146.574 52.86H146.594Z" fill="#121617"/>
<path d="M148.603 52.93C148.566 52.9314 148.529 52.9251 148.494 52.9115C148.46 52.8979 148.428 52.8774 148.402 52.8511C148.376 52.8248 148.355 52.7934 148.342 52.7588C148.328 52.7241 148.322 52.6871 148.323 52.65V47.65C148.322 47.6128 148.328 47.5758 148.342 47.5412C148.355 47.5066 148.376 47.4751 148.402 47.4488C148.428 47.4226 148.46 47.402 148.494 47.3884C148.529 47.3748 148.566 47.3686 148.603 47.37H150.033C150.361 47.3651 150.685 47.4443 150.973 47.6C151.238 47.7546 151.459 47.9751 151.613 48.24C151.765 48.5294 151.841 48.853 151.833 49.18C151.841 49.5037 151.765 49.8241 151.613 50.11C151.459 50.3749 151.238 50.5953 150.973 50.75C150.685 50.9056 150.361 50.9848 150.033 50.98H148.883V52.67C148.885 52.7071 148.878 52.7441 148.865 52.7788C148.851 52.8134 148.831 52.8448 148.804 52.8711C148.778 52.8974 148.747 52.9179 148.712 52.9315C148.677 52.9451 148.64 52.9514 148.603 52.95V52.93ZM148.883 50.42H150.033C150.26 50.4252 150.485 50.37 150.683 50.26C150.873 50.1553 151.029 49.9993 151.133 49.81C151.245 49.6119 151.3 49.3871 151.293 49.16C151.3 48.9296 151.245 48.7017 151.133 48.5C151.026 48.3125 150.871 48.1571 150.683 48.05C150.485 47.9399 150.26 47.8847 150.033 47.89H148.883V50.42Z" fill="#121617"/>
<path d="M152.893 52.93C152.845 52.9323 152.797 52.9202 152.756 52.8953C152.715 52.8703 152.683 52.8337 152.663 52.79C152.643 52.7494 152.633 52.705 152.633 52.66C152.633 52.615 152.643 52.5706 152.663 52.53L154.773 47.53C154.79 47.4729 154.826 47.4233 154.875 47.3889C154.924 47.3545 154.983 47.3373 155.043 47.34C155.102 47.339 155.16 47.3568 155.209 47.391C155.257 47.4251 155.294 47.4738 155.313 47.53L157.423 52.53C157.441 52.572 157.448 52.6178 157.444 52.6633C157.44 52.7088 157.426 52.7527 157.401 52.7912C157.376 52.8297 157.343 52.8615 157.303 52.884C157.263 52.9064 157.218 52.9188 157.173 52.92C157.12 52.9302 157.066 52.9302 157.013 52.92C156.968 52.8837 156.931 52.8397 156.903 52.79L154.903 48.02H155.133L153.133 52.79C153.111 52.8413 153.077 52.8861 153.033 52.92C152.987 52.9312 152.94 52.9345 152.893 52.93ZM153.373 51.6L153.583 51.12H156.493L156.703 51.6H153.373Z" fill="#121617"/>
<path d="M161.322 53C160.95 53.0044 160.582 52.9294 160.242 52.78C159.906 52.6372 159.603 52.426 159.352 52.16C159.094 51.8994 158.89 51.5901 158.752 51.25C158.468 50.5372 158.468 49.7428 158.752 49.03C159.027 48.3462 159.558 47.7971 160.232 47.5C160.576 47.3507 160.947 47.2757 161.322 47.28C161.967 47.2626 162.595 47.4874 163.082 47.91C163.12 47.9397 163.145 47.9826 163.152 48.03C163.167 48.0687 163.167 48.1113 163.152 48.15C163.136 48.1883 163.108 48.2201 163.072 48.24C163.061 48.2776 163.036 48.3096 163.002 48.33C162.957 48.3452 162.907 48.3452 162.862 48.33C162.81 48.325 162.761 48.3041 162.722 48.27C162.547 48.1078 162.339 47.985 162.112 47.91C161.864 47.8257 161.604 47.7851 161.342 47.79C161.043 47.7879 160.746 47.8492 160.472 47.97C160.206 48.0957 159.966 48.2685 159.762 48.48C159.553 48.6908 159.389 48.9428 159.282 49.22C159.163 49.5052 159.102 49.8111 159.102 50.12C159.102 50.4289 159.163 50.7348 159.282 51.02C159.391 51.299 159.554 51.5538 159.762 51.77C159.964 51.9816 160.205 52.1515 160.472 52.27C160.986 52.4912 161.565 52.5091 162.092 52.32C162.33 52.2322 162.553 52.1073 162.752 51.95C162.777 51.9264 162.807 51.9087 162.84 51.8984C162.873 51.888 162.908 51.8851 162.942 51.89C163.005 51.8995 163.061 51.9315 163.102 51.98C163.128 52.0045 163.148 52.034 163.162 52.0667C163.175 52.0994 163.182 52.1345 163.182 52.17C163.187 52.2032 163.187 52.2368 163.182 52.27C163.167 52.3063 163.147 52.34 163.122 52.37C162.886 52.5845 162.606 52.7449 162.302 52.84C161.986 52.9434 161.655 52.9973 161.322 53Z" fill="#121617"/>
<path d="M167.611 53C167.218 53.0046 166.828 52.9333 166.461 52.79C166.126 52.6495 165.82 52.4458 165.561 52.19C165.301 51.9312 165.097 51.6214 164.961 51.28C164.688 50.5433 164.695 49.7318 164.981 49C165.117 48.6587 165.321 48.3489 165.581 48.09C165.84 47.8342 166.146 47.6305 166.481 47.49C167.219 47.2104 168.034 47.2104 168.771 47.49C169.109 47.6328 169.417 47.8361 169.681 48.09C169.935 48.352 170.136 48.6611 170.271 49C170.565 49.7317 170.565 50.5484 170.271 51.28C170.136 51.6189 169.935 51.928 169.681 52.19C169.417 52.4439 169.109 52.6473 168.771 52.79C168.402 52.9361 168.008 53.0074 167.611 53ZM167.611 52.47C167.926 52.4706 168.238 52.4129 168.531 52.3C168.805 52.1836 169.053 52.014 169.261 51.8012C169.468 51.5883 169.632 51.3364 169.741 51.06C169.968 50.4677 169.968 49.8123 169.741 49.22C169.637 48.9416 169.473 48.6891 169.261 48.48C169.055 48.2648 168.807 48.0945 168.531 47.98C168.238 47.8671 167.926 47.8095 167.611 47.81C167.297 47.8076 166.984 47.8653 166.691 47.98C166.412 48.092 166.16 48.2625 165.951 48.48C165.74 48.6891 165.576 48.9416 165.471 49.22C165.244 49.8123 165.244 50.4677 165.471 51.06C165.579 51.3372 165.742 51.5892 165.951 51.8C166.16 52.0176 166.412 52.1881 166.691 52.3C166.984 52.4148 167.297 52.4725 167.611 52.47Z" fill="#121617"/>
<path d="M171.551 47.86C171.484 47.858 171.421 47.8333 171.371 47.79C171.347 47.7665 171.329 47.7384 171.317 47.7074C171.305 47.6764 171.299 47.6433 171.301 47.61C171.298 47.5752 171.303 47.5404 171.316 47.5076C171.328 47.4749 171.346 47.4451 171.371 47.42C171.394 47.3965 171.422 47.3782 171.453 47.3661C171.484 47.3541 171.517 47.3486 171.551 47.35H175.551C175.586 47.347 175.621 47.3516 175.654 47.3636C175.687 47.3756 175.716 47.3946 175.741 47.4194C175.766 47.4442 175.785 47.4741 175.797 47.507C175.809 47.54 175.814 47.5751 175.811 47.61C175.812 47.6433 175.807 47.6764 175.795 47.7074C175.782 47.7384 175.764 47.7665 175.741 47.79C175.688 47.8354 175.62 47.8603 175.551 47.86H171.551ZM173.551 52.93C173.514 52.9314 173.476 52.9252 173.442 52.9116C173.407 52.898 173.376 52.8774 173.35 52.8511C173.323 52.8249 173.303 52.7934 173.289 52.7588C173.276 52.7242 173.269 52.6872 173.271 52.65V47.35H173.831V52.65C173.83 52.7243 173.801 52.7956 173.751 52.85C173.722 52.8785 173.687 52.9003 173.649 52.9141C173.611 52.9279 173.571 52.9334 173.531 52.93H173.551Z" fill="#121617"/>
<path d="M177.63 52.93C177.546 52.9309 177.465 52.9026 177.4 52.85C177.37 52.8262 177.346 52.7957 177.331 52.7609C177.315 52.7261 177.308 52.6881 177.31 52.65V47.65C177.31 47.6161 177.318 47.5827 177.331 47.5518C177.345 47.5208 177.365 47.493 177.39 47.47C177.447 47.4246 177.517 47.3998 177.59 47.3998C177.662 47.3998 177.733 47.4246 177.79 47.47C177.815 47.493 177.834 47.5208 177.848 47.5518C177.862 47.5827 177.869 47.6161 177.87 47.65V49.65H179.25C179.559 49.6436 179.866 49.7158 180.14 49.86C180.393 49.9969 180.604 50.2011 180.75 50.45C180.901 50.711 180.977 51.0086 180.97 51.31C180.977 51.6177 180.901 51.9216 180.75 52.19C180.607 52.4409 180.395 52.6457 180.14 52.78C179.868 52.932 179.561 53.008 179.25 53L177.63 52.93ZM177.87 52.39H179.25C179.461 52.3921 179.67 52.3442 179.86 52.25C180.034 52.1539 180.18 52.0122 180.28 51.84C180.383 51.6463 180.435 51.4294 180.43 51.21C180.435 51.0001 180.383 50.7927 180.28 50.61C180.182 50.4381 180.036 50.2989 179.86 50.21C179.67 50.1158 179.461 50.0679 179.25 50.07H177.87V52.39ZM182.19 52.93C182.116 52.929 182.044 52.9005 181.99 52.85C181.964 52.8236 181.944 52.7923 181.93 52.758C181.916 52.7237 181.909 52.687 181.91 52.65V47.65C181.909 47.613 181.916 47.5763 181.93 47.542C181.944 47.5077 181.964 47.4764 181.99 47.45C182.044 47.3986 182.115 47.37 182.19 47.37C182.264 47.37 182.336 47.3986 182.39 47.45C182.416 47.4764 182.436 47.5077 182.45 47.542C182.464 47.5763 182.47 47.613 182.47 47.65V52.65C182.47 52.687 182.464 52.7237 182.45 52.758C182.436 52.7923 182.416 52.8236 182.39 52.85C182.335 52.9005 182.264 52.929 182.19 52.93Z" fill="#121617"/>
<path d="M68.9222 50.1H0V50.69H68.9222V50.1Z" fill="#121617"/>
<path d="M174.32 14.39H179.59C179.59 14.39 179.59 23.06 179.59 26.91C179.576 29.121 180.435 31.2481 181.979 32.83C182.822 33.6523 183.852 34.2564 184.981 34.5899C186.11 34.9234 187.303 34.9762 188.457 34.7436C189.611 34.511 190.691 34.0001 191.602 33.2553C192.514 32.5106 193.23 31.5544 193.688 30.47C194.255 29.0278 194.536 27.4894 194.518 25.94C194.518 24.43 194.518 14.39 194.518 14.39H199.977C199.977 14.39 199.977 30 199.977 37C200.191 41.112 198.885 45.1591 196.308 48.37C194.895 50.3373 192.886 51.7962 190.578 52.53C190.083 52.6419 189.576 52.6889 189.069 52.67V47.54C192.618 45.68 194.778 42.85 194.568 37.93C193.688 38.27 192.878 38.65 192.238 38.93C190.111 39.8029 187.802 40.1444 185.513 39.9248C183.224 39.7053 181.023 38.9314 179.1 37.67C177.731 36.7977 176.595 35.6054 175.79 34.1959C174.986 32.7864 174.536 31.2022 174.48 29.58C174.2 26.51 174.32 14.39 174.32 14.39Z" fill="#121617"/>
<path d="M45.065 40H40.5555L40.4955 37.56C40.4955 37.56 38.5857 38.56 37.8958 38.82C32.8964 40.82 28.1769 40.35 23.9474 36.91C20.0678 33.71 18.698 28 20.4378 22.75C21.2242 20.4175 22.6933 18.3752 24.6545 16.888C26.6158 15.4009 28.9786 14.5375 31.4366 14.41C38.0658 14.08 43.5552 18 44.875 24C44.9953 24.6127 45.0556 25.2356 45.055 25.86L45.065 40ZM32.5264 19.57C31.0416 19.5701 29.5899 20.0093 28.354 20.8324C27.1181 21.6555 26.1532 22.8256 25.5805 24.1957C25.0078 25.5659 24.853 27.0747 25.1355 28.5326C25.418 29.9905 26.1252 31.3323 27.1682 32.3892C28.2112 33.4462 29.5434 34.1711 30.9972 34.4729C32.4511 34.7746 33.9617 34.6397 35.3391 34.0851C36.7165 33.5305 37.8992 32.5809 38.7384 31.3558C39.5776 30.1307 40.0359 28.6848 40.0556 27.2C40.0635 26.2042 39.8749 25.2166 39.5005 24.2939C39.1262 23.3711 38.5735 22.5313 37.8741 21.8225C37.1746 21.1137 36.3423 20.5499 35.4246 20.1634C34.507 19.7769 33.5221 19.5752 32.5264 19.57Z" fill="#121617"/>
<path d="M65.8225 14.39V19.54H56.7136C55.7037 19.5011 54.7102 19.8041 53.8939 20.4C53.5963 20.6521 53.3677 20.9758 53.2296 21.3405C53.0915 21.7053 53.0485 22.0992 53.1045 22.4852C53.1605 22.8712 53.3137 23.2366 53.5497 23.5471C53.7858 23.8575 54.0969 24.1029 54.4538 24.26C55.2972 24.6403 56.2198 24.8118 57.1435 24.76C59.5358 24.6248 61.9344 24.8644 64.2527 25.47C65.9299 25.9329 67.378 26.9972 68.3204 28.4599C69.2628 29.9227 69.6337 31.6813 69.3621 33.4C69.2189 35.0908 68.4725 36.6737 67.2591 37.8597C66.0457 39.0457 64.4463 39.7557 62.7529 39.86C58.7533 40.04 50.2143 39.96 50.2143 39.96L50.1443 34.73C50.1443 34.73 57.5035 34.73 60.3931 34.73C61.0764 34.7779 61.7613 34.6649 62.3929 34.4C62.8408 34.184 63.2157 33.8417 63.4715 33.4152C63.7273 32.9888 63.8529 32.4969 63.8327 32C63.802 31.5362 63.6332 31.0922 63.3481 30.7251C63.063 30.358 62.6746 30.0846 62.2329 29.94C61.435 29.6591 60.5844 29.56 59.7432 29.65C57.3087 29.7572 54.8732 29.4633 52.534 28.78C49.1744 27.67 47.4446 24.72 47.8246 20.86C47.9417 19.2469 48.6251 17.727 49.7539 16.5688C50.8827 15.4105 52.3844 14.6884 53.9939 14.53C55.3637 14.39 65.8625 14.39 65.8625 14.39H65.8225Z" fill="#121617"/>
<path d="M157.182 34.72C157.182 36.55 157.182 38.14 157.182 39.95C154.128 39.865 151.142 39.0341 148.483 37.53C144.553 35.34 143.044 31.69 142.394 27.53C142.213 26.2046 142.133 24.8675 142.154 23.53C142.154 16.42 142.154 2.2 142.154 2.2V0H147.553V14.39H152.983V19.39H147.563V20.39C147.713 25.17 146.753 28.66 150.363 32.12C152.302 33.6928 154.689 34.6132 157.182 34.75V34.72Z" fill="#121617"/>
<path d="M172.91 34.72C172.91 36.55 172.91 38.14 172.91 39.95C169.854 39.8638 166.864 39.0331 164.201 37.53C160.282 35.34 158.772 31.69 158.122 27.53C157.937 26.2051 157.856 24.8676 157.882 23.53C157.882 16.42 157.882 2.2 157.882 2.2V0H163.271V14.39H168.701V19.39H163.281C163.281 19.39 163.281 20.32 163.281 20.39C163.441 25.17 162.471 28.66 166.081 32.12C168.024 33.693 170.414 34.6133 172.91 34.75V34.72Z" fill="#121617"/>
<path d="M18.4079 34.72V40H10.9088C9.62559 39.9825 8.34686 39.8452 7.0892 39.59C5.08813 39.1131 3.30372 37.9813 2.01933 36.3743C0.734946 34.7673 0.0242133 32.7772 0 30.72L0 0H4.99943C4.99943 0 4.99943 20 4.99943 29C4.94237 30.0039 5.09563 31.0087 5.44938 31.95C5.75953 32.8001 6.33114 33.5301 7.08209 34.035C7.83304 34.5398 8.72468 34.7937 9.62891 34.76L18.4079 34.72Z" fill="#121617"/>
<path d="M103.908 40H98.8189V14.39H103.908V18.15C106.577 15.8484 109.964 14.5473 113.487 14.47C113.487 16.19 113.487 19.47 113.487 19.47C113.487 19.47 112.287 19.6 111.767 19.69C106.938 20.57 104.218 23.31 103.908 28.78V40Z" fill="#121617"/>
<path d="M32.2769 1.72998C31.4522 1.72998 30.6459 1.97455 29.9602 2.43275C29.2744 2.89096 28.7399 3.54222 28.4243 4.30419C28.1087 5.06616 28.0261 5.90461 28.187 6.71351C28.3479 7.52241 28.7451 8.26543 29.3283 8.84862C29.9115 9.4318 30.6545 9.82895 31.4634 9.98985C32.2723 10.1508 33.1107 10.0682 33.8727 9.75256C34.6347 9.43694 35.2859 8.90246 35.7441 8.21671C36.2023 7.53096 36.4469 6.72473 36.4469 5.89998C36.4469 5.35237 36.339 4.81012 36.1295 4.30419C35.9199 3.79826 35.6128 3.33857 35.2255 2.95135C34.8383 2.56412 34.3786 2.25696 33.8727 2.0474C33.3668 1.83784 32.8245 1.72998 32.2769 1.72998ZM32.2769 7.51998C31.9541 7.51997 31.6386 7.42412 31.3703 7.24457C31.102 7.06501 30.8931 6.80985 30.77 6.51142C30.647 6.213 30.6153 5.88475 30.679 5.56829C30.7427 5.25183 30.8989 4.96141 31.1279 4.73386C31.3569 4.5063 31.6482 4.35185 31.9651 4.29009C32.2819 4.22833 32.61 4.26204 32.9076 4.38695C33.2053 4.51185 33.4592 4.72233 33.6371 4.99169C33.815 5.26106 33.9089 5.57718 33.9069 5.89998C33.9069 6.11357 33.8647 6.32504 33.7826 6.52225C33.7006 6.71945 33.5804 6.89848 33.4289 7.04904C33.2774 7.19961 33.0976 7.31873 32.8999 7.39955C32.7022 7.48037 32.4905 7.5213 32.2769 7.51998Z" fill="#121617"/>
<path d="M88.2 27.68L88.38 27.58L91.6796 25.72L92.1495 25.45L96.4691 23H96.539C95.5866 20.2737 93.7436 17.9477 91.3074 16.3972C88.8711 14.8468 85.9837 14.1623 83.1108 14.4543C80.238 14.7462 77.5472 15.9974 75.4725 18.0062C73.3979 20.015 72.0603 22.6642 71.6755 25.5264C71.2908 28.3886 71.8814 31.297 73.3519 33.7825C74.8225 36.2679 77.0873 38.1854 79.7811 39.2258C82.4749 40.2661 85.4406 40.3685 88.1997 39.5166C90.9589 38.6647 93.3507 36.908 94.9892 34.53L90.7097 32.07L90.2598 31.82C89.6099 32.6278 88.7991 33.2915 87.8789 33.7688C86.9586 34.2461 85.9491 34.5266 84.9145 34.5925C83.88 34.6583 82.843 34.5081 81.8697 34.1513C80.8964 33.7945 80.008 33.2389 79.261 32.52L79.651 32.3C79.651 32.3 83.8005 30.1 88.27 27.68H88.2ZM77.8112 28.79L77.1812 29.09C76.7569 27.4795 76.8852 25.7731 77.5455 24.2441C78.2059 22.7151 79.3601 21.4519 80.8234 20.6568C82.2867 19.8617 83.9745 19.5806 85.6165 19.8586C87.2584 20.1366 88.7597 20.9575 89.8798 22.19H89.7498L77.8112 28.79Z" fill="#121617"/>
<path d="M131.295 27.68L131.465 27.58L134.775 25.72L135.235 25.45L139.564 23H139.624C138.677 20.2787 136.842 17.9553 134.414 16.4041C131.986 14.853 129.107 14.1644 126.24 14.4492C123.373 14.7341 120.685 15.9758 118.61 17.9745C116.535 19.9731 115.192 22.6122 114.799 25.4667C114.407 28.3211 114.986 31.2248 116.444 33.7099C117.902 36.195 120.154 38.1169 122.838 39.1659C125.521 40.2149 128.479 40.33 131.236 39.4927C133.993 38.6554 136.388 36.9143 138.034 34.55L133.755 32.09L133.305 31.84C132.654 32.6465 131.843 33.309 130.923 33.7854C130.003 34.2619 128.993 34.5419 127.959 34.6077C126.925 34.6735 125.889 34.5237 124.916 34.1678C123.942 33.8118 123.054 33.2575 122.306 32.54L122.706 32.32C122.706 32.32 126.856 30.12 131.325 27.7L131.295 27.68ZM120.896 28.79L120.266 29.09C119.844 27.4775 119.974 25.7696 120.636 24.2398C121.298 22.71 122.455 21.4465 123.92 20.6516C125.385 19.8567 127.075 19.5763 128.718 19.8552C130.362 20.1341 131.864 20.9562 132.985 22.19H132.855L120.896 28.79Z" fill="#121617"/>
</svg>
