<svg width="271" height="73" viewBox="0 0 271 73" fill="none" xmlns="http://www.w3.org/2000/svg">
<g clip-path="url(#clip0_36_4035)">
<path d="M104.85 65.2487C104.75 65.0487 104.65 64.9487 104.45 64.9487C104.25 64.9487 104.15 65.0487 104.05 65.2487L101.25 71.9487C101.15 72.0487 101.15 72.1487 101.25 72.3487C101.35 72.4487 101.45 72.5487 101.55 72.5487C101.65 72.5487 101.65 72.5487 101.75 72.4487C101.85 72.4487 101.85 72.3487 101.85 72.2487L104.35 66.1487L106.85 72.2487C106.85 72.3487 106.95 72.3487 106.95 72.4487C107.05 72.4487 107.05 72.5487 107.15 72.5487C107.25 72.5487 107.35 72.4487 107.45 72.3487C107.55 72.2487 107.55 72.1487 107.45 71.9487L104.85 65.2487Z" fill="white"/>
<path d="M112.65 65.2487C112.55 65.0487 112.45 64.9487 112.25 64.9487C112.05 64.9487 111.95 65.0487 111.85 65.2487L109.05 71.9487C108.95 72.0487 109.05 72.1487 109.05 72.3487C109.15 72.4487 109.25 72.5487 109.35 72.5487C109.45 72.5487 109.45 72.5487 109.55 72.4487C109.65 72.4487 109.65 72.3487 109.65 72.2487L110.25 70.6487H113.95L114.55 72.2487C114.55 72.3487 114.65 72.3487 114.65 72.4487C114.75 72.4487 114.75 72.5487 114.85 72.5487C114.95 72.5487 115.05 72.4487 115.15 72.3487C115.25 72.2487 115.25 72.1487 115.15 71.9487L112.65 65.2487ZM110.65 70.0487L112.25 66.1487L113.85 70.0487H110.65Z" fill="white"/>
<path d="M121.95 68.3486C121.55 68.1486 121.15 68.0486 120.75 68.0486H118.35V65.6486H122.05C122.15 65.6486 122.25 65.6486 122.25 65.5486C122.35 65.4486 122.35 65.3486 122.35 65.2486C122.35 65.1486 122.35 65.0486 122.25 64.9486C122.15 64.8486 122.15 64.8486 122.05 64.8486H117.95C117.85 64.8486 117.75 64.8486 117.65 64.9486C117.55 65.0486 117.55 65.1486 117.55 65.2486V72.0486C117.55 72.1486 117.55 72.2486 117.65 72.3486C117.75 72.4486 117.85 72.4486 117.95 72.4486H120.65C121.15 72.4486 121.55 72.3486 121.85 72.1486C122.25 71.9486 122.45 71.6486 122.65 71.3486C122.85 71.0486 122.95 70.6486 122.95 70.1486C122.95 69.7486 122.85 69.3486 122.65 69.0486C122.55 68.7486 122.25 68.5486 121.95 68.3486ZM122.05 71.0486C121.95 71.2486 121.75 71.4486 121.45 71.5486C121.25 71.6486 120.95 71.7486 120.65 71.7486H118.25V68.6486H120.65C120.95 68.6486 121.25 68.7486 121.45 68.8486C121.65 68.9486 121.85 69.1486 122.05 69.3486C122.15 69.5486 122.25 69.8486 122.25 70.1486C122.25 70.5486 122.25 70.8486 122.05 71.0486Z" fill="white"/>
<path d="M131.75 65.9486C131.45 65.6486 130.95 65.3486 130.55 65.1486C130.05 64.9486 129.55 64.8486 129.05 64.8486C128.45 64.8486 127.95 64.9486 127.55 65.1486C127.05 65.3486 126.65 65.6486 126.35 65.9486C126.05 66.2486 125.75 66.7486 125.55 67.1486C125.35 67.6486 125.25 68.1486 125.25 68.6486C125.25 69.2486 125.35 69.7486 125.55 70.1486C125.75 70.6486 126.05 71.0486 126.35 71.3486C126.65 71.6486 127.15 71.9486 127.55 72.1486C128.05 72.3486 128.55 72.4486 129.05 72.4486C129.65 72.4486 130.15 72.3486 130.55 72.1486C131.05 71.9486 131.45 71.6486 131.75 71.3486C132.05 71.0486 132.35 70.5486 132.55 70.1486C132.75 69.6486 132.85 69.1486 132.85 68.6486C132.85 68.0486 132.75 67.5486 132.55 67.1486C132.35 66.7486 132.05 66.3486 131.75 65.9486ZM131.85 69.9486C131.65 70.3486 131.45 70.6486 131.15 70.9486C130.85 71.2486 130.55 71.4486 130.15 71.6486C129.75 71.8486 129.35 71.8486 128.95 71.8486C128.45 71.8486 128.05 71.7486 127.75 71.6486C127.35 71.4486 127.05 71.2486 126.75 70.9486C126.45 70.6486 126.25 70.3486 126.05 69.9486C125.85 69.5486 125.85 69.1486 125.85 68.6486C125.85 68.2486 125.95 67.7486 126.05 67.4486C126.25 67.0486 126.45 66.7486 126.75 66.4486C127.05 66.1486 127.35 65.9486 127.75 65.7486C128.15 65.5486 128.55 65.5486 128.95 65.5486C129.35 65.5486 129.85 65.6486 130.15 65.7486C130.55 65.9486 130.85 66.1486 131.15 66.4486C131.45 66.7486 131.65 67.0486 131.85 67.4486C132.05 67.8486 132.05 68.2486 132.05 68.6486C132.05 69.1486 132.05 69.6486 131.85 69.9486Z" fill="white"/>
<path d="M138.95 65.2487C138.55 65.0487 138.15 64.9487 137.65 64.9487H135.75C135.65 64.9487 135.55 64.9487 135.45 65.0487C135.35 65.1487 135.35 65.2487 135.35 65.3487V72.1487C135.35 72.2487 135.35 72.3487 135.45 72.4487C135.55 72.5487 135.65 72.5487 135.75 72.5487C135.85 72.5487 135.95 72.5487 136.05 72.4487C136.15 72.3487 136.15 72.2487 136.15 72.1487V69.8487H137.75C138.25 69.8487 138.65 69.7487 139.05 69.5487C139.45 69.3487 139.75 69.0487 139.95 68.6487C140.15 68.2487 140.25 67.8487 140.25 67.3487C140.25 66.8487 140.15 66.4487 139.95 66.0487C139.55 65.7487 139.35 65.4487 138.95 65.2487ZM139.15 68.2487C139.05 68.5487 138.85 68.7487 138.55 68.8487C138.25 68.9487 137.95 69.0487 137.65 69.0487H136.05V65.6487H137.65C137.95 65.6487 138.25 65.7487 138.55 65.8487C138.85 65.9487 139.05 66.2487 139.15 66.4487C139.25 66.7487 139.35 67.0487 139.35 67.3487C139.35 67.7487 139.25 68.0487 139.15 68.2487Z" fill="white"/>
<path d="M144.75 65.2487C144.65 65.0487 144.55 64.9487 144.35 64.9487C144.15 64.9487 144.05 65.0487 143.95 65.2487L141.15 71.9487C141.05 72.0487 141.15 72.1487 141.15 72.3487C141.25 72.4487 141.35 72.5487 141.45 72.5487C141.55 72.5487 141.55 72.5487 141.65 72.4487C141.75 72.4487 141.75 72.3487 141.75 72.2487L142.35 70.6487H146.05L146.65 72.2487C146.65 72.3487 146.75 72.3487 146.75 72.4487C146.85 72.4487 146.85 72.5487 146.95 72.5487C147.05 72.5487 147.15 72.4487 147.25 72.3487C147.35 72.2487 147.35 72.1487 147.25 71.9487L144.75 65.2487ZM142.75 70.0487L144.35 66.1487L145.95 70.0487H142.75Z" fill="white"/>
<path d="M153.75 64.9487H151.45H150.65H148.35C148.25 64.9487 148.15 64.9487 148.05 65.0487C147.95 65.1487 147.95 65.1487 147.95 65.3487C147.95 65.4487 147.95 65.5487 148.05 65.5487C148.15 65.6487 148.15 65.6487 148.35 65.6487H150.65V72.1487C150.65 72.2487 150.65 72.3487 150.75 72.4487C150.85 72.5487 150.95 72.5487 151.05 72.5487C151.15 72.5487 151.25 72.5487 151.35 72.4487C151.45 72.3487 151.45 72.2487 151.45 72.1487V65.6487H153.75C153.85 65.6487 153.95 65.6487 154.05 65.5487C154.15 65.4487 154.15 65.4487 154.15 65.3487C154.15 65.2487 154.15 65.1487 154.05 65.0487C153.95 64.9487 153.85 64.9487 153.75 64.9487Z" fill="white"/>
<path d="M161.95 65.9486C161.65 65.6486 161.15 65.3486 160.75 65.1486C160.25 64.9486 159.75 64.8486 159.25 64.8486C158.65 64.8486 158.15 64.9486 157.75 65.1486C157.25 65.3486 156.85 65.6486 156.55 65.9486C156.25 66.2486 155.95 66.7486 155.75 67.1486C155.55 67.6486 155.45 68.1486 155.45 68.6486C155.45 69.2486 155.55 69.7486 155.75 70.1486C155.95 70.6486 156.25 71.0486 156.55 71.3486C156.85 71.6486 157.35 71.9486 157.75 72.1486C158.25 72.3486 158.75 72.4486 159.25 72.4486C159.85 72.4486 160.35 72.3486 160.75 72.1486C161.25 71.9486 161.65 71.6486 161.95 71.3486C162.25 71.0486 162.55 70.5486 162.75 70.1486C162.95 69.6486 163.05 69.1486 163.05 68.6486C163.05 68.0486 162.95 67.5486 162.75 67.1486C162.65 66.7486 162.35 66.3486 161.95 65.9486ZM162.15 69.9486C161.95 70.3486 161.75 70.6486 161.45 70.9486C161.15 71.2486 160.85 71.4486 160.45 71.6486C160.05 71.8486 159.65 71.8486 159.25 71.8486C158.75 71.8486 158.35 71.7486 158.05 71.6486C157.65 71.4486 157.35 71.2486 157.05 70.9486C156.75 70.6486 156.55 70.3486 156.35 69.9486C156.15 69.5486 156.15 69.1486 156.15 68.6486C156.15 68.2486 156.25 67.7486 156.35 67.4486C156.55 67.0486 156.75 66.7486 157.05 66.4486C157.35 66.1486 157.65 65.9486 158.05 65.7486C158.45 65.5486 158.85 65.5486 159.25 65.5486C159.65 65.5486 160.15 65.6486 160.45 65.7486C160.85 65.9486 161.15 66.1486 161.45 66.4486C161.75 66.7486 161.95 67.0486 162.15 67.4486C162.35 67.8486 162.35 68.2486 162.35 68.6486C162.35 69.1486 162.25 69.6486 162.15 69.9486Z" fill="white"/>
<path d="M169.15 65.2487C168.75 65.0487 168.35 64.9487 167.85 64.9487H165.95C165.85 64.9487 165.75 64.9487 165.65 65.0487C165.55 65.1487 165.55 65.2487 165.55 65.3487V72.1487C165.55 72.2487 165.55 72.3487 165.65 72.4487C165.75 72.5487 165.85 72.5487 165.95 72.5487C166.05 72.5487 166.15 72.5487 166.25 72.4487C166.35 72.3487 166.35 72.2487 166.35 72.1487V69.8487H167.95C168.45 69.8487 168.85 69.7487 169.25 69.5487C169.65 69.3487 169.95 69.0487 170.15 68.6487C170.35 68.2487 170.45 67.8487 170.45 67.3487C170.45 66.8487 170.35 66.4487 170.15 66.0487C169.85 65.7487 169.55 65.4487 169.15 65.2487ZM169.35 68.2487C169.25 68.5487 169.05 68.7487 168.75 68.8487C168.45 68.9487 168.15 69.0487 167.85 69.0487H166.25V65.6487H167.85C168.15 65.6487 168.45 65.7487 168.75 65.8487C169.05 65.9487 169.25 66.2487 169.35 66.4487C169.45 66.7487 169.55 67.0487 169.55 67.3487C169.65 67.7487 169.55 68.0487 169.35 68.2487Z" fill="white"/>
<path d="M178.35 64.9487C178.25 64.9487 178.15 64.9487 178.05 65.0487L173.25 71.2487V65.3487C173.25 65.2487 173.25 65.1487 173.15 65.0487C173.05 64.9487 172.95 64.9487 172.85 64.9487C172.75 64.9487 172.65 64.9487 172.55 65.0487C172.45 65.1487 172.45 65.2487 172.45 65.3487V72.1487C172.45 72.2487 172.45 72.3487 172.55 72.4487C172.65 72.5487 172.75 72.5487 172.85 72.5487C172.95 72.5487 172.95 72.5487 173.05 72.5487C173.15 72.5487 173.15 72.4487 173.15 72.4487L177.95 66.2487V72.1487C177.95 72.2487 177.95 72.3487 178.05 72.4487C178.15 72.5487 178.25 72.5487 178.35 72.5487C178.45 72.5487 178.55 72.5487 178.65 72.4487C178.75 72.3487 178.75 72.2487 178.75 72.1487V65.3487C178.75 65.2487 178.75 65.1487 178.65 65.0487C178.55 65.0487 178.45 64.9487 178.35 64.9487Z" fill="white"/>
<path d="M186.05 64.9487H183.85C183.35 64.9487 182.95 65.0487 182.55 65.2487C182.15 65.4487 181.85 65.7487 181.65 66.0487C181.45 66.3487 181.35 66.7487 181.35 67.2487C181.35 67.6487 181.45 68.0487 181.65 68.3487C181.85 68.6487 182.15 68.9487 182.45 69.1487C182.65 69.2487 182.85 69.3487 182.95 69.3487L181.35 71.8487C181.25 72.0487 181.25 72.1487 181.25 72.2487C181.35 72.3487 181.45 72.4487 181.65 72.4487C181.75 72.4487 181.75 72.4487 181.85 72.4487C181.95 72.4487 181.95 72.3487 181.95 72.3487L183.75 69.5487H185.55V72.1487C185.55 72.2487 185.55 72.3487 185.65 72.4487C185.75 72.5487 185.85 72.5487 185.95 72.5487C186.05 72.5487 186.15 72.5487 186.25 72.4487C186.35 72.3487 186.35 72.2487 186.35 72.1487V65.3487C186.35 65.2487 186.35 65.1487 186.25 65.0487C186.25 65.0487 186.15 64.9487 186.05 64.9487ZM185.65 68.8487H183.85C183.55 68.8487 183.25 68.7487 182.95 68.6487C182.65 68.5487 182.45 68.3487 182.35 68.1487C182.25 67.9487 182.15 67.6487 182.15 67.3487C182.15 67.0487 182.25 66.7487 182.35 66.4487C182.45 66.2487 182.65 66.0487 182.95 65.8487C183.25 65.7487 183.45 65.6487 183.85 65.6487H185.65V68.8487Z" fill="white"/>
<path d="M195.55 68.6488L198.05 65.5488C198.15 65.4488 198.15 65.3488 198.15 65.3488C198.15 65.2488 198.15 65.1488 198.05 65.1488C197.95 65.0488 197.85 65.0488 197.75 65.0488C197.65 65.0488 197.55 65.0488 197.45 65.1488L194.85 68.4488H193.75V65.4488C193.75 65.3488 193.75 65.2488 193.65 65.1488C193.55 65.0488 193.45 65.0488 193.35 65.0488C193.25 65.0488 193.15 65.0488 193.05 65.1488C192.95 65.2488 192.95 65.3488 192.95 65.4488V72.2488C192.95 72.3488 192.95 72.4488 193.05 72.5488C193.15 72.6488 193.25 72.6488 193.35 72.6488C193.45 72.6488 193.55 72.6488 193.65 72.5488C193.75 72.4488 193.75 72.3488 193.75 72.2488V69.1488H194.85L197.65 72.5488C197.75 72.6488 197.85 72.6488 197.95 72.6488C198.05 72.6488 198.15 72.6488 198.25 72.5488C198.35 72.4488 198.35 72.3488 198.35 72.3488C198.35 72.2488 198.35 72.1488 198.25 72.0488L195.55 68.6488Z" fill="white"/>
<path d="M204.25 65.2487C203.85 65.0487 203.45 64.9487 202.95 64.9487H201.05C200.95 64.9487 200.85 64.9487 200.75 65.0487C200.65 65.1487 200.65 65.2487 200.65 65.3487V72.1487C200.65 72.2487 200.65 72.3487 200.75 72.4487C200.85 72.5487 200.95 72.5487 201.05 72.5487C201.15 72.5487 201.25 72.5487 201.35 72.4487C201.45 72.3487 201.45 72.2487 201.45 72.1487V69.8487H203.05C203.55 69.8487 203.95 69.7487 204.35 69.5487C204.75 69.3487 205.05 69.0487 205.25 68.6487C205.45 68.2487 205.55 67.8487 205.55 67.3487C205.55 66.8487 205.45 66.4487 205.25 66.0487C204.95 65.7487 204.65 65.4487 204.25 65.2487ZM204.45 68.2487C204.35 68.5487 204.15 68.7487 203.85 68.8487C203.55 68.9487 203.25 69.0487 202.95 69.0487H201.35V65.6487H202.95C203.25 65.6487 203.55 65.7487 203.85 65.8487C204.15 65.9487 204.35 66.2487 204.45 66.4487C204.55 66.7487 204.65 67.0487 204.65 67.3487C204.75 67.7487 204.65 68.0487 204.45 68.2487Z" fill="white"/>
<path d="M210.05 65.2487C209.95 65.0487 209.85 64.9487 209.65 64.9487C209.45 64.9487 209.35 65.0487 209.25 65.2487L206.45 71.9487C206.35 72.0487 206.45 72.1487 206.45 72.3487C206.55 72.4487 206.65 72.5487 206.75 72.5487C206.85 72.5487 206.85 72.5487 206.95 72.4487C207.05 72.4487 207.05 72.3487 207.05 72.2487L207.65 70.6487H211.35L211.95 72.2487C211.95 72.3487 212.05 72.3487 212.05 72.4487C212.15 72.4487 212.15 72.5487 212.25 72.5487C212.35 72.5487 212.45 72.4487 212.55 72.3487C212.65 72.2487 212.65 72.1487 212.55 71.9487L210.05 65.2487ZM208.15 70.0487L209.75 66.1487L211.35 70.0487H208.15Z" fill="white"/>
<path d="M220.35 71.1488C220.25 71.1488 220.15 71.1488 220.15 71.2488C219.85 71.4488 219.55 71.6488 219.25 71.7488C218.95 71.8488 218.55 71.9488 218.25 71.9488C217.85 71.9488 217.45 71.8488 217.05 71.7488C216.65 71.5488 216.35 71.3488 216.05 71.0488C215.75 70.7488 215.55 70.4488 215.35 70.0488C215.15 69.6488 215.15 69.2488 215.15 68.8488C215.15 68.4488 215.25 68.0488 215.35 67.6488C215.55 67.2488 215.75 66.9488 216.05 66.6488C216.35 66.3488 216.65 66.1488 217.05 65.9488C217.45 65.7488 217.85 65.6488 218.25 65.6488C218.65 65.6488 218.95 65.7488 219.25 65.8488C219.55 65.9488 219.85 66.1488 220.05 66.3488C220.15 66.4488 220.15 66.4488 220.25 66.4488C220.35 66.4488 220.35 66.4488 220.45 66.4488C220.55 66.4488 220.55 66.3488 220.55 66.3488C220.65 66.3488 220.65 66.2488 220.65 66.2488C220.65 66.1488 220.65 66.1488 220.65 66.0488C220.65 65.9488 220.65 65.9488 220.55 65.8488C220.15 65.5488 219.85 65.3488 219.45 65.2488C219.05 65.1488 218.65 65.0488 218.15 65.0488C217.65 65.0488 217.15 65.1488 216.65 65.3488C216.15 65.5488 215.75 65.8488 215.45 66.1488C215.15 66.5488 214.85 66.9488 214.65 67.3488C214.45 67.8488 214.35 68.3488 214.35 68.8488C214.35 69.3488 214.45 69.8488 214.65 70.3488C214.85 70.8488 215.15 71.2488 215.45 71.5488C215.75 71.9488 216.15 72.1488 216.65 72.3488C217.15 72.5488 217.55 72.6488 218.15 72.6488C218.55 72.6488 219.05 72.5488 219.45 72.4488C219.85 72.3488 220.25 72.1488 220.55 71.8488L220.65 71.7488V71.6488C220.65 71.5488 220.65 71.4488 220.55 71.3488C220.55 71.1488 220.45 71.1488 220.35 71.1488Z" fill="white"/>
<path d="M229.45 65.9486C229.15 65.6486 228.65 65.3486 228.25 65.1486C227.75 64.9486 227.25 64.8486 226.75 64.8486C226.15 64.8486 225.65 64.9486 225.25 65.1486C224.75 65.3486 224.35 65.6486 224.05 65.9486C223.75 66.2486 223.45 66.7486 223.25 67.1486C223.05 67.6486 222.95 68.1486 222.95 68.6486C222.95 69.2486 223.05 69.7486 223.25 70.1486C223.45 70.6486 223.75 71.0486 224.05 71.3486C224.35 71.6486 224.85 71.9486 225.25 72.1486C225.75 72.3486 226.25 72.4486 226.75 72.4486C227.35 72.4486 227.85 72.3486 228.25 72.1486C228.75 71.9486 229.15 71.6486 229.45 71.3486C229.75 71.0486 230.05 70.5486 230.25 70.1486C230.45 69.6486 230.55 69.1486 230.55 68.6486C230.55 68.0486 230.45 67.5486 230.25 67.1486C230.05 66.7486 229.85 66.3486 229.45 65.9486ZM229.55 69.9486C229.35 70.3486 229.15 70.6486 228.85 70.9486C228.55 71.2486 228.25 71.4486 227.85 71.6486C227.45 71.8486 227.05 71.8486 226.65 71.8486C226.15 71.8486 225.75 71.7486 225.45 71.6486C225.05 71.4486 224.75 71.2486 224.45 70.9486C224.15 70.6486 223.95 70.3486 223.75 69.9486C223.55 69.5486 223.55 69.1486 223.55 68.6486C223.55 68.2486 223.65 67.7486 223.75 67.4486C223.95 67.0486 224.15 66.7486 224.45 66.4486C224.75 66.1486 225.05 65.9486 225.45 65.7486C225.85 65.5486 226.25 65.5486 226.65 65.5486C227.05 65.5486 227.55 65.6486 227.85 65.7486C228.25 65.9486 228.55 66.1486 228.85 66.4486C229.15 66.7486 229.35 67.0486 229.55 67.4486C229.75 67.8486 229.75 68.2486 229.75 68.6486C229.85 69.1486 229.75 69.6486 229.55 69.9486Z" fill="white"/>
<path d="M237.35 64.9487H235.05H234.25H231.95C231.85 64.9487 231.75 64.9487 231.65 65.0487C231.55 65.1487 231.55 65.1487 231.55 65.3487C231.55 65.4487 231.55 65.5487 231.65 65.5487C231.75 65.6487 231.75 65.6487 231.95 65.6487H234.25V72.1487C234.25 72.2487 234.25 72.3487 234.35 72.4487C234.45 72.5487 234.55 72.5487 234.65 72.5487C234.75 72.5487 234.85 72.5487 234.95 72.4487C235.05 72.3487 235.05 72.2487 235.05 72.1487V65.6487H237.35C237.45 65.6487 237.55 65.6487 237.65 65.5487C237.75 65.4487 237.75 65.4487 237.75 65.3487C237.75 65.2487 237.75 65.1487 237.65 65.0487C237.55 64.9487 237.45 64.9487 237.35 64.9487Z" fill="white"/>
<path d="M243.65 68.2487C243.25 68.0487 242.85 67.9487 242.45 67.9487H240.55V65.2487C240.55 65.1487 240.55 65.0487 240.45 65.0487C240.35 64.9487 240.25 64.9487 240.15 64.9487C240.05 64.9487 239.95 64.9487 239.85 65.0487C239.75 65.1487 239.75 65.1487 239.75 65.2487V72.0487C239.75 72.1487 239.75 72.2487 239.85 72.3487C239.95 72.4487 240.05 72.4487 240.15 72.4487H242.35C242.85 72.4487 243.25 72.3487 243.55 72.1487C243.95 71.9487 244.15 71.6487 244.35 71.3487C244.55 71.0487 244.65 70.6487 244.65 70.1487C244.65 69.7487 244.55 69.3487 244.35 68.9487C244.25 68.7487 243.95 68.4487 243.65 68.2487ZM243.75 71.0487C243.65 71.2487 243.45 71.4487 243.15 71.6487C242.95 71.7487 242.65 71.8487 242.35 71.8487H240.45V68.7487H242.35C242.65 68.7487 242.95 68.8487 243.15 68.9487C243.35 69.0487 243.55 69.2487 243.75 69.4487C243.85 69.6487 243.95 69.9487 243.95 70.2487C243.95 70.5487 243.95 70.7487 243.75 71.0487Z" fill="white"/>
<path d="M246.35 64.9487C246.25 64.9487 246.15 64.9487 246.05 65.0487C245.95 65.1487 245.95 65.2487 245.95 65.3487V72.1487C245.95 72.2487 245.95 72.3487 246.05 72.4487C246.15 72.5487 246.25 72.5487 246.35 72.5487C246.45 72.5487 246.55 72.5487 246.65 72.4487C246.75 72.3487 246.75 72.2487 246.75 72.1487V65.3487C246.75 65.2487 246.75 65.1487 246.65 65.0487C246.55 65.0487 246.45 64.9487 246.35 64.9487Z" fill="white"/>
<path d="M93.65 68.6484H0.649994V69.4484H93.65V68.6484Z" fill="white"/>
<path d="M270.35 20.4487H263.05C263.05 20.4487 263.05 34.0487 263.05 36.0487C263.05 37.9487 262.75 40.2487 261.95 42.1487C258.95 49.0487 250.45 49.8487 246.15 45.3487C243.95 42.7487 242.95 40.6487 242.95 37.3487C242.95 32.1487 242.95 20.4487 242.95 20.4487H235.85C235.85 20.4487 235.65 36.8487 236.05 40.9487C236.45 45.4487 238.25 49.3487 242.25 51.8487C247.85 55.3487 253.75 55.9487 259.95 53.5487C260.85 53.2487 261.95 52.7487 263.05 52.2487C263.35 58.9487 260.45 62.7487 255.65 65.2487V72.2487C256.25 72.2487 257.15 72.2487 257.65 72.0487C260.95 71.0487 263.25 69.1487 265.35 66.4487C268.85 61.9487 270.35 57.5487 270.35 51.0487C270.35 41.4487 270.35 20.4487 270.35 20.4487Z" fill="white"/>
<path d="M32.95 50.7484C38.65 55.4484 44.95 56.0484 51.75 53.3484C52.65 52.9484 55.25 51.6484 55.25 51.6484L55.35 54.9484H61.45V35.9484C61.45 35.1484 61.35 34.2484 61.25 33.4484C59.45 25.3484 52.05 20.0484 43.15 20.4484C36.35 20.7484 30.35 25.2484 28.25 31.7484C25.85 38.7484 27.75 46.5484 32.95 50.7484ZM44.55 27.4484C50.15 27.4484 54.75 32.0484 54.75 37.7484C54.75 43.1484 50.05 47.7484 44.65 47.7484C39.05 47.8484 34.35 43.2484 34.35 37.5484C34.25 31.9484 38.85 27.4484 44.55 27.4484Z" fill="white"/>
<path d="M87.35 35.3485C84.25 34.3485 80.95 34.3485 77.75 34.3485C76.45 34.3485 75.25 34.2485 74.15 33.6485C72.05 32.5485 71.65 29.9485 73.45 28.4485C74.35 27.6485 76.05 27.2485 77.25 27.2485H89.55V20.2485C89.55 20.2485 75.35 20.2485 73.55 20.4485C69.05 20.9485 65.75 24.4485 65.25 28.9485C64.75 34.1485 67.05 38.1485 71.65 39.6485C74.85 40.6485 78.05 40.8485 81.35 40.8485C82.45 40.8485 83.65 40.7485 84.65 41.2485C85.85 41.7485 86.75 42.6485 86.85 44.0485C86.85 45.4485 86.25 46.6485 84.85 47.3485C83.95 47.9485 83.05 47.9485 82.15 47.9485C78.25 47.9485 68.35 47.8485 68.35 47.8485L68.45 54.9485C68.45 54.9485 79.95 55.0485 85.35 54.8485C90.15 54.6485 93.75 50.7485 94.25 46.1485C94.75 40.9485 92.15 36.8485 87.35 35.3485Z" fill="white"/>
<path d="M200.95 51.6487C204.45 53.6487 208.45 54.8487 212.65 54.9487C212.65 52.5487 212.65 50.3487 212.65 47.8487C209.25 47.5487 205.55 46.3487 203.45 44.2487C198.55 39.5487 199.85 34.8487 199.65 28.3487C199.65 28.2487 199.65 27.0487 199.65 27.0487H206.95V20.3487H199.65V0.94873H192.35V3.94873C192.35 3.94873 192.35 23.1487 192.35 32.7487C192.35 34.5487 192.35 36.3487 192.65 38.1487C193.55 43.7487 195.65 48.7487 200.95 51.6487Z" fill="white"/>
<path d="M233.85 47.8486C230.45 47.5486 226.75 46.3486 224.65 44.2486C219.75 39.5486 221.05 34.8486 220.85 28.3486C220.85 28.2486 220.85 27.0486 220.85 27.0486H228.15V20.3486H220.85V0.848633H213.65V3.84863C213.65 3.84863 213.65 23.0486 213.65 32.6486C213.65 34.4486 213.65 36.2486 213.95 38.0486C214.85 43.6486 216.85 48.6486 222.15 51.5486C225.65 53.5486 229.65 54.7486 233.85 54.8486C233.85 52.5486 233.85 50.3486 233.85 47.8486Z" fill="white"/>
<path d="M10.25 54.4487C10.65 54.5487 13.05 54.9487 15.45 54.9487H25.55V47.8487H13.65C10.85 47.8487 9.04999 46.5487 8.04999 44.0487C7.44999 42.7487 7.44999 41.4487 7.44999 40.0487C7.44999 27.9487 7.44999 0.94873 7.44999 0.94873H0.649994V42.4487C0.649994 48.1487 4.74999 53.0487 10.25 54.4487Z" fill="white"/>
<path d="M151.35 27.5486C152.05 27.4486 153.65 27.2486 153.65 27.2486C153.65 27.2486 153.65 22.8486 153.65 20.4486C149.05 20.5486 144.05 22.4486 140.75 25.4486C140.75 23.0486 140.75 20.3486 140.75 20.3486H133.85V54.9486H140.75V39.8486C141.25 32.4486 144.85 28.7486 151.35 27.5486Z" fill="white"/>
<path d="M44.15 14.5486C47.25 14.5486 49.75 12.0486 49.75 8.94863C49.75 5.84863 47.25 3.34863 44.15 3.34863C41.05 3.34863 38.55 5.84863 38.55 8.94863C38.55 12.0486 41.05 14.5486 44.15 14.5486ZM44.15 6.74863C45.35 6.74863 46.35 7.74863 46.35 8.94863C46.35 10.1486 45.35 11.1486 44.15 11.1486C42.95 11.1486 41.95 10.1486 41.95 8.94863C41.95 7.74863 42.95 6.74863 44.15 6.74863Z" fill="white"/>
<path d="M114.45 55.0487C120.35 55.0487 125.55 52.1487 128.65 47.6487L122.85 44.3487L122.25 44.0487C120.45 46.3487 117.55 47.8487 114.35 47.8487C111.65 47.8487 109.15 46.7487 107.35 45.0487L107.85 44.7487C107.85 44.7487 113.45 41.7487 119.45 38.5487L119.65 38.4487L124.15 35.9487L124.75 35.5487L130.55 32.2487L130.65 32.1487C128.25 25.3487 121.85 20.4487 114.25 20.4487C104.65 20.4487 96.85 28.2487 96.85 37.8487C97.15 47.3487 104.85 55.0487 114.45 55.0487ZM114.45 27.6487C117.35 27.6487 120.05 28.9487 121.85 30.9487C121.75 30.9487 121.65 31.0487 121.65 31.0487L105.55 39.9487C105.55 39.9487 105.15 40.1487 104.65 40.3487C104.45 39.5487 104.35 38.6487 104.35 37.7487C104.45 32.1487 108.95 27.6487 114.45 27.6487Z" fill="white"/>
<path d="M172.55 20.3486C162.95 20.3486 155.15 28.1486 155.15 37.7486C155.15 47.3486 162.95 55.1486 172.55 55.1486C178.45 55.1486 183.65 52.2486 186.75 47.7486L180.95 44.4486L180.35 44.1486C178.55 46.4486 175.65 47.9486 172.45 47.9486C169.75 47.9486 167.25 46.8486 165.45 45.1486L165.95 44.8486C165.95 44.8486 171.55 41.8486 177.55 38.6486L177.75 38.5486L182.25 36.0486L182.85 35.6486L188.65 32.3486L188.75 32.2486C186.65 25.2486 180.15 20.3486 172.55 20.3486ZM179.85 31.0486L163.75 39.9486C163.75 39.9486 163.35 40.1486 162.85 40.3486C162.65 39.5486 162.55 38.6486 162.55 37.7486C162.55 32.1486 167.05 27.7486 172.55 27.7486C175.45 27.7486 178.15 29.0486 179.95 31.0486C179.85 30.9486 179.85 31.0486 179.85 31.0486Z" fill="white"/>
</g>
<defs>
<clipPath id="clip0_36_4035">
<rect width="269.7" height="71.7" fill="white" transform="translate(0.649994 0.848633)"/>
</clipPath>
</defs>
</svg>
