<svg width="24" height="24" viewBox="0 0 24 24" fill="none" xmlns="http://www.w3.org/2000/svg">
<path d="M12.9683 24C12.3114 24 11.6546 24 11.004 24C10.7099 23.9625 10.4159 23.9312 10.1281 23.8749C5.29865 22.968 2.09567 20.1786 0.500435 15.5379C0.218923 14.7186 0.100063 13.8617 -3.05176e-05 12.9986C-3.05176e-05 12.3419 -3.05176e-05 11.6852 -3.05176e-05 11.0348C0.0625277 10.6095 0.106318 10.1842 0.181388 9.76515C1.48885 2.84786 8.5204 -1.47389 15.2954 0.464957C21.2197 2.16613 24.8981 8.06397 23.8096 14.1494C22.9964 18.6901 19.5995 22.3989 15.1516 23.606C14.4384 23.7999 13.7065 23.9124 12.9683 24ZM17.5038 8.27662C17.5413 7.41352 17.2348 7.16334 16.5153 7.33221C16.1775 7.41352 15.8585 7.52609 15.5394 7.65118C12.5804 8.80198 9.67772 10.0841 6.76251 11.3412C6.16821 11.5977 5.5739 11.8541 4.99211 12.1293C4.79193 12.2231 4.56046 12.3482 4.57297 12.6109C4.58548 12.8861 4.82946 12.9674 5.04216 13.0362C5.51135 13.1988 5.98679 13.3489 6.46849 13.4927C6.66242 13.5553 6.8626 13.5928 7.05653 13.6428C7.73216 13.8367 8.34523 13.6991 8.92077 13.3113C10.4534 12.2794 11.9924 11.2599 13.5376 10.2342C13.694 10.1279 13.8504 10.0341 14.0193 9.94652C14.1256 9.89023 14.2507 9.87772 14.3383 9.99656C14.4259 10.1091 14.3884 10.2217 14.3008 10.3155C14.1506 10.4844 14.0005 10.6533 13.8378 10.8096C12.7931 11.8103 11.7484 12.7985 10.7037 13.7992C10.566 13.9305 10.4347 14.0556 10.3283 14.2182C10.1657 14.4684 10.1782 14.6998 10.3721 14.925C10.516 15.0938 10.6974 15.2189 10.8788 15.3378C11.9674 16.0758 13.0621 16.8138 14.1569 17.5518C14.4071 17.7207 14.6699 17.8833 14.9701 17.9583C15.4331 18.0709 15.7208 17.9396 15.9398 17.5205C16.0461 17.3079 16.1087 17.0827 16.1525 16.8576C16.4903 15.0438 16.8031 13.2238 17.0846 11.3975C17.2473 10.3218 17.4162 9.23978 17.5038 8.27662Z" fill="#121617"/>
</svg>
