<svg width="26" height="26" viewBox="0 0 26 26" fill="none" xmlns="http://www.w3.org/2000/svg">
<path d="M14.3587 25.8486C13.6745 25.8486 12.9902 25.8486 12.3125 25.8486C12.0062 25.8095 11.7 25.777 11.4002 25.7183C6.36949 24.7737 3.03306 21.868 1.37135 17.0339C1.07811 16.1805 0.9543 15.2879 0.850037 14.3889C0.850037 13.7048 0.850037 13.0207 0.850037 12.3432C0.915201 11.9002 0.960817 11.4572 1.03901 11.0207C2.40096 3.81515 9.72548 -0.686665 16.7828 1.33296C22.9539 3.10502 26.7856 9.2486 25.6518 15.5876C24.8046 20.3175 21.2662 24.1808 16.6329 25.4382C15.8901 25.6402 15.1276 25.7574 14.3587 25.8486ZM19.0831 9.47011C19.1222 8.57105 18.8029 8.31045 18.0535 8.48635C17.7016 8.57105 17.3693 8.68832 17.037 8.81861C13.9547 10.0174 10.931 11.3529 7.89435 12.6624C7.27528 12.9295 6.65622 13.1966 6.05019 13.4833C5.84166 13.581 5.60055 13.7113 5.61358 13.985C5.62662 14.2716 5.88076 14.3563 6.10232 14.428C6.59105 14.5974 7.08631 14.7537 7.58808 14.9036C7.79009 14.9687 7.99861 15.0078 8.20062 15.0599C8.9044 15.2619 9.54302 15.1185 10.1425 14.7146C11.7391 13.6397 13.3421 12.5777 14.9517 11.5093C15.1146 11.3985 15.2775 11.3008 15.4535 11.2096C15.5642 11.151 15.6946 11.1379 15.7858 11.2617C15.877 11.379 15.8379 11.4962 15.7467 11.594C15.5903 11.7699 15.4339 11.9458 15.2645 12.1087C14.1762 13.151 13.088 14.1804 11.9997 15.2228C11.8564 15.3596 11.7195 15.4899 11.6087 15.6593C11.4393 15.9199 11.4523 16.1609 11.6544 16.3955C11.8042 16.5714 11.9932 16.7017 12.1822 16.8255C13.3161 17.5942 14.4564 18.363 15.5968 19.1317C15.8575 19.3076 16.1312 19.477 16.444 19.5552C16.9262 19.6725 17.2259 19.5357 17.454 19.0992C17.5648 18.8777 17.63 18.6431 17.6756 18.4086C18.0275 16.5193 18.3533 14.6234 18.6465 12.7211C18.816 11.6005 18.9919 10.4734 19.0831 9.47011Z" fill="white"/>
</svg>
