<svg width="24" height="24" viewBox="0 0 24 24" fill="none" xmlns="http://www.w3.org/2000/svg">
<path d="M12 0C5.37255 0 -3.05176e-05 5.37258 -3.05176e-05 12C-3.05176e-05 18.6274 5.37255 24 12 24C18.6274 24 24 18.6274 24 12C24 5.37258 18.6274 0 12 0ZM18.392 16.0734H16.8693C16.7043 16.0736 16.5415 16.0366 16.3928 15.9652C16.2442 15.8938 16.1135 15.7898 16.0106 15.6609C15.5539 15.0876 14.6543 14.071 13.7097 13.6344C13.655 13.6088 13.5947 13.5974 13.5345 13.6012C13.4742 13.6051 13.4158 13.6241 13.3648 13.6564C13.3138 13.6888 13.2718 13.7335 13.2427 13.7864C13.2135 13.8393 13.1982 13.8987 13.198 13.9591V15.4651C13.1981 15.545 13.1823 15.6241 13.1518 15.6979C13.1212 15.7717 13.0764 15.8388 13.02 15.8953C12.9635 15.9517 12.8964 15.9966 12.8227 16.0271C12.7489 16.0577 12.6698 16.0734 12.5899 16.0734H11.8858C10.9701 16.0734 8.99828 15.516 7.42708 13.2272C6.08833 11.2772 5.49156 9.76598 5.14356 8.54067C5.12333 8.46886 5.12002 8.39333 5.13389 8.32002C5.14775 8.24671 5.17842 8.17761 5.22348 8.11814C5.26855 8.05868 5.32678 8.01047 5.39361 7.97729C5.46044 7.94412 5.53405 7.92688 5.60866 7.92694H7.14906C7.30275 7.92681 7.45237 7.97628 7.57567 8.06801C7.69898 8.15974 7.78938 8.28882 7.83344 8.43605C8.11989 9.39412 8.86183 11.4609 10.1733 12.4901C10.2133 12.5216 10.2613 12.5412 10.312 12.5467C10.3626 12.5522 10.4137 12.5434 10.4595 12.5212C10.5054 12.499 10.544 12.4643 10.5711 12.4212C10.5981 12.3781 10.6125 12.3282 10.6126 12.2773V9.8648C10.6126 9.38803 10.4059 8.91103 10.0834 8.53823C10.037 8.48477 10.0069 8.41906 9.99669 8.34895C9.98653 8.27885 9.99675 8.20729 10.0261 8.14283C10.0555 8.07837 10.1028 8.02372 10.1624 7.9854C10.222 7.94708 10.2913 7.9267 10.3622 7.9267H12.7371C12.8594 7.9267 12.9767 7.97528 13.0632 8.06176C13.1497 8.14823 13.1983 8.26551 13.1983 8.38781V11.6374C13.1983 11.6845 13.2112 11.7306 13.2357 11.7708C13.2602 11.8109 13.2953 11.8436 13.3371 11.8652C13.3789 11.8867 13.4258 11.8964 13.4727 11.8931C13.5197 11.8897 13.5648 11.8736 13.6031 11.8463C14.039 11.536 14.4124 11.0775 14.7558 10.5623C15.188 9.91406 15.7154 8.84259 15.9799 8.28652C16.0312 8.17879 16.1119 8.08779 16.2127 8.02408C16.3135 7.96037 16.4304 7.92656 16.5497 7.92656H18.2297C18.2998 7.92653 18.3688 7.94442 18.4301 7.97853C18.4914 8.01263 18.543 8.06183 18.58 8.12145C18.6169 8.18108 18.638 8.24915 18.6413 8.31923C18.6446 8.38931 18.6299 8.45906 18.5987 8.52188C18.1748 9.37219 17.3491 10.9321 16.5721 11.8473C16.4608 11.9789 16.4064 12.1493 16.4206 12.321C16.4349 12.4927 16.5167 12.6518 16.6481 12.7632C17.1546 13.196 17.9453 13.996 18.7978 15.3286C18.8448 15.4016 18.8713 15.4858 18.8745 15.5726C18.8777 15.6593 18.8575 15.7453 18.816 15.8215C18.7745 15.8977 18.7132 15.9613 18.6386 16.0057C18.5639 16.05 18.4788 16.0734 18.392 16.0734Z" fill="#121617"/>
</svg>
