<svg width="26" height="26" viewBox="0 0 26 26" fill="none" xmlns="http://www.w3.org/2000/svg">
<g clip-path="url(#clip0_36_4076)">
<path d="M13.35 0.848633C6.44644 0.848633 0.850006 6.44507 0.850006 13.3486C0.850006 20.2522 6.44644 25.8486 13.35 25.8486C20.2536 25.8486 25.85 20.2522 25.85 13.3486C25.85 6.44507 20.2536 0.848633 13.35 0.848633ZM20.0084 17.5918H18.4222C18.2504 17.592 18.0808 17.5535 17.9259 17.4791C17.771 17.4047 17.635 17.2963 17.5277 17.1621C17.0521 16.5649 16.1149 15.506 15.131 15.0511C15.074 15.0244 15.0112 15.0126 14.9484 15.0166C14.8856 15.0206 14.8249 15.0404 14.7717 15.0741C14.7186 15.1078 14.6748 15.1544 14.6445 15.2095C14.6141 15.2646 14.5981 15.3265 14.598 15.3894V16.9582C14.598 17.0414 14.5817 17.1238 14.5498 17.2006C14.518 17.2775 14.4713 17.3474 14.4125 17.4062C14.3537 17.465 14.2838 17.5117 14.207 17.5436C14.1301 17.5754 14.0477 17.5918 13.9645 17.5918H13.2311C12.2773 17.5918 10.2232 17.0112 8.58658 14.627C7.19205 12.5958 6.57042 11.0215 6.20792 9.74517C6.18684 9.67036 6.18339 9.59168 6.19783 9.51532C6.21228 9.43895 6.24423 9.36697 6.29117 9.30503C6.33811 9.24309 6.39877 9.19287 6.46838 9.15831C6.53799 9.12375 6.61467 9.1058 6.69239 9.10586H8.29698C8.45706 9.10572 8.61292 9.15726 8.74136 9.25281C8.8698 9.34836 8.96398 9.48281 9.00987 9.63618C9.30826 10.6342 10.0811 12.7871 11.4472 13.8591C11.4889 13.892 11.5389 13.9124 11.5917 13.9181C11.6444 13.9239 11.6977 13.9146 11.7454 13.8915C11.7931 13.8684 11.8334 13.8323 11.8616 13.7874C11.8898 13.7424 11.9047 13.6905 11.9048 13.6375V11.1245C11.9048 10.6278 11.6896 10.131 11.3536 9.74263C11.3052 9.68693 11.2738 9.61849 11.2633 9.54546C11.2527 9.47243 11.2633 9.3979 11.2939 9.33075C11.3245 9.2636 11.3738 9.20668 11.4359 9.16676C11.4979 9.12684 11.5702 9.10561 11.644 9.10561H14.1179C14.2453 9.10561 14.3674 9.15622 14.4575 9.2463C14.5476 9.33637 14.5982 9.45854 14.5982 9.58594V12.9709C14.5983 13.0199 14.6117 13.068 14.6372 13.1098C14.6627 13.1517 14.6993 13.1857 14.7428 13.2082C14.7864 13.2306 14.8352 13.2407 14.8841 13.2372C14.933 13.2338 14.98 13.2169 15.0199 13.1885C15.474 12.8653 15.8629 12.3877 16.2207 11.851C16.6709 11.1758 17.2202 10.0597 17.4958 9.48042C17.5492 9.36821 17.6332 9.27342 17.7383 9.20705C17.8433 9.14069 17.965 9.10546 18.0893 9.10547H19.8393C19.9123 9.10544 19.9842 9.12407 20.0481 9.1596C20.1119 9.19512 20.1657 9.24637 20.2042 9.30848C20.2427 9.37059 20.2647 9.4415 20.2681 9.5145C20.2715 9.58749 20.2562 9.66015 20.2237 9.72559C19.7821 10.6113 18.922 12.2362 18.1126 13.1896C17.9967 13.3266 17.94 13.5041 17.9549 13.683C17.9697 13.8619 18.055 14.0275 18.1919 14.1437C18.7194 14.5944 19.5431 15.4278 20.4311 16.816C20.48 16.8919 20.5077 16.9797 20.511 17.0701C20.5143 17.1604 20.4933 17.25 20.45 17.3294C20.4068 17.4087 20.3429 17.475 20.2652 17.5212C20.1875 17.5674 20.0988 17.5918 20.0084 17.5918Z" fill="white"/>
</g>
<defs>
<clipPath id="clip0_36_4076">
<rect width="25" height="25" fill="white" transform="translate(0.850006 0.848633)"/>
</clipPath>
</defs>
</svg>
