<svg width="24" height="24" viewBox="0 0 24 24" fill="none" xmlns="http://www.w3.org/2000/svg">
<path d="M-3.05176e-05 13.0364C-3.05176e-05 12.3545 -3.05176e-05 11.6727 -3.05176e-05 10.9636C0.054453 10.5818 0.108937 10.2 0.16342 9.81818C0.953432 5.31818 4.41314 1.58182 8.8263 0.381818C9.53459 0.218182 10.2429 0.109091 10.9512 0C11.6322 0 12.3133 0 13.0215 0C13.4846 0.0818182 13.975 0.109091 14.4381 0.218182C19.1237 1.33636 22.1748 4.22727 23.5913 8.83636C23.8093 9.54545 23.891 10.2818 24 11.0182C24 11.6727 24 12.3273 24 12.9818C23.9455 13.3909 23.9182 13.8 23.8093 14.2091C22.7468 19.0091 19.8865 22.1182 15.2009 23.5909C14.4654 23.8091 13.7298 23.9182 12.9671 24C12.3133 24 11.6594 24 11.0056 24C10.6243 23.9455 10.2156 23.9182 9.83425 23.8364C5.01245 22.8 1.87965 19.9091 0.408596 15.2182C0.190662 14.5091 0.108937 13.7727 -3.05176e-05 13.0364ZM19.3689 11.7545C19.3689 11.4545 19.3689 11.1273 19.3144 10.7727C18.7151 6.81818 15.0647 4.14545 11.1419 4.74545C6.29282 5.50909 3.65037 10.8273 5.93868 15.1636C6.0204 15.3273 6.04764 15.4636 5.99316 15.6545C5.6935 16.6909 5.42108 17.7273 5.14866 18.7636C5.06694 19.0636 5.09418 19.0636 5.3666 18.9818C6.45627 18.7091 7.5187 18.4091 8.60837 18.1364C8.77182 18.0818 8.90803 18.1091 9.04424 18.1909C10.4336 18.8727 11.8774 19.1182 13.4029 18.8727C16.9988 18.2727 19.4234 15.1364 19.3689 11.7545Z" fill="#121617"/>
<path d="M12.3133 17.7818C11.1419 17.7818 10.1339 17.5091 9.18045 16.9637C9.017 16.8546 8.8808 16.8546 8.6901 16.9091C8.11803 17.0727 7.51871 17.2091 6.94663 17.3727C6.70145 17.4273 6.67421 17.4273 6.7287 17.1818C6.89215 16.5818 7.0556 16.0091 7.21905 15.4091C7.24629 15.2727 7.24629 15.1637 7.16456 15.0273C6.45628 13.9091 6.12938 12.6818 6.23834 11.3455C6.45628 9.05456 7.60043 7.36365 9.67081 6.38183C13.294 4.66365 17.5437 6.95456 18.143 10.9364C18.6333 14.2091 16.3178 17.2909 13.0488 17.7546C12.7764 17.7818 12.504 17.7818 12.3133 17.7818ZM14.1112 15.2182C14.1929 15.2182 14.2474 15.2182 14.3291 15.2182C15.1192 15.1637 15.7457 14.6182 15.8547 13.8273C15.8819 13.6637 15.8819 13.5 15.6912 13.4182C15.2281 13.2 14.7378 12.9546 14.2747 12.7364C14.1112 12.6546 13.975 12.7091 13.866 12.8455C13.7026 13.0636 13.5391 13.2546 13.3757 13.4727C13.2667 13.6091 13.1305 13.6637 12.9671 13.5818C11.9046 13.1727 11.0874 12.4364 10.4881 11.4546C10.4063 11.3182 10.4063 11.1818 10.5153 11.0727C10.6515 10.8818 10.7877 10.7182 10.9239 10.5273C11.0057 10.3909 11.0329 10.2546 10.9784 10.1182C10.7877 9.68183 10.6243 9.24547 10.4336 8.8091C10.3791 8.70001 10.3246 8.6182 10.2156 8.56365C9.88874 8.42729 9.45287 8.5091 9.2077 8.78183C8.93528 9.05456 8.74459 9.38183 8.66286 9.76365C8.55389 10.3364 8.66286 10.8818 8.93528 11.3727C9.69805 12.7091 10.6788 13.8546 12.0681 14.5909C12.6946 14.9182 13.3757 15.1909 14.1112 15.2182Z" fill="#121617"/>
</svg>
