<svg width="20" height="21" viewBox="0 0 20 21" fill="none" xmlns="http://www.w3.org/2000/svg">
<path d="M5.05387 2.30431L5.05386 2.30429C3.89082 2.96886 2.87619 3.86476 2.07256 4.93673C1.26906 6.00852 0.69352 7.2336 0.381415 8.53644C0.267708 9.03568 0.182102 9.5409 0.125 10.0497V11.6714C0.192728 12.263 0.299027 12.8496 0.443218 13.4273C0.676767 14.2963 1.02968 15.1286 1.49188 15.9004C1.53583 15.972 1.56443 16.0519 1.57587 16.1351C1.58734 16.2186 1.58129 16.3035 1.55811 16.3845M5.05387 2.30431L0.947392 20.6369M5.05387 2.30431L5.05589 2.3031C6.22818 1.6036 7.54072 1.17238 8.89929 1.0404L8.8993 1.04043L8.90184 1.04013C10.2579 0.880333 11.6323 1.00932 12.935 1.41863C14.2377 1.82793 15.4391 2.5083 16.4603 3.41504L16.4603 3.41507L16.4628 3.41717C18.1447 4.83408 19.2794 6.7939 19.6712 8.95846L19.6712 8.95847L19.6719 8.96175C19.9816 10.445 19.9366 11.9804 19.5406 13.443C19.1446 14.9055 18.4088 16.2537 17.3931 17.3778L17.3912 17.38C15.8529 19.1657 13.7157 20.3277 11.3812 20.6477L11.3816 20.6477L11.3976 20.7717L11.3806 20.6478M5.05387 2.30431L11.3806 20.6478M1.55811 16.3845C1.5581 16.3846 1.5581 16.3846 1.55809 16.3846L1.43792 16.3502L1.55813 16.3845C1.55813 16.3845 1.55812 16.3845 1.55811 16.3845ZM1.55811 16.3845C1.21684 17.5819 0.885162 18.7841 0.553317 19.987L0.552581 19.9897L0.552551 19.9897C0.548135 20.0044 0.543146 20.0189 0.538951 20.0312L0.538558 20.0323C0.534275 20.0448 0.53072 20.0552 0.527587 20.0653C0.520827 20.0871 0.519346 20.098 0.519346 20.1029V20.117L0.516197 20.1308C0.476862 20.3027 0.516267 20.4152 0.576054 20.4735C0.634714 20.5308 0.744003 20.5661 0.911797 20.5171M0.911797 20.5171C0.911685 20.5172 0.911572 20.5172 0.911459 20.5172L0.947392 20.6369M0.911797 20.5171C0.911953 20.5171 0.912109 20.517 0.912266 20.517L0.947392 20.6369M0.911797 20.5171C1.55258 20.3248 2.19306 20.1283 2.83396 19.9317C3.15447 19.8333 3.47509 19.735 3.7959 19.6371M0.947392 20.6369C1.58865 20.4445 2.2299 20.2477 2.87115 20.051C3.19172 19.9527 3.51228 19.8543 3.83285 19.7565M3.7959 19.6371C3.79567 19.6372 3.79543 19.6372 3.79519 19.6373L3.83285 19.7565M3.7959 19.6371C3.90228 19.6035 4.00668 19.5719 4.10997 19.5406C4.27767 19.4899 4.44245 19.44 4.608 19.3839M3.7959 19.6371C3.79606 19.637 3.79621 19.637 3.79637 19.6369L3.83285 19.7565M3.83285 19.7565L4.608 19.3839M4.608 19.3839C4.60715 19.3842 4.6063 19.3845 4.60545 19.3849L4.6504 19.5015L4.61022 19.3831C4.60948 19.3834 4.60874 19.3836 4.608 19.3839ZM4.608 19.3839C4.68611 19.3543 4.77022 19.3439 4.85321 19.3538C4.9353 19.3635 5.01386 19.3927 5.08236 19.4388M4.608 19.3839L5.01589 19.5448M5.08236 19.4388C5.08102 19.4381 5.07967 19.4373 5.07832 19.4365L5.01589 19.5448M5.08236 19.4388C5.08386 19.4399 5.08535 19.4409 5.08684 19.4419L5.01589 19.5448M5.08236 19.4388C6.16281 20.0611 7.35201 20.4714 8.58619 20.6477L8.58486 20.6476L8.56981 20.7717C7.31786 20.5929 6.11159 20.1765 5.01589 19.5448M9.21215 20.7236L8.58747 20.6479L10.8012 20.8486M9.21215 20.7236H9.20461V20.8486L9.21966 20.7245L9.21215 20.7236ZM9.21215 20.7236H10.7932M10.7932 20.7236L10.7852 20.7247L10.8012 20.8486M10.7932 20.7236L11.3806 20.6478M10.7932 20.7236H10.8012V20.8486M10.8012 20.8486L11.3806 20.6478M2.08264 15.7918L2.08262 15.7918L2.0839 15.7937C2.13565 15.8719 2.16902 15.9608 2.1815 16.0538C2.19398 16.1467 2.18525 16.2413 2.15596 16.3304L2.15587 16.3304L2.15453 16.335C1.9814 16.9398 1.81299 17.5474 1.64483 18.154C1.52812 18.5751 1.41152 18.9957 1.29355 19.4147L1.28887 19.4313V19.445C1.28853 19.4464 1.28781 19.449 1.28643 19.4532C1.28614 19.454 1.28549 19.4559 1.28459 19.4584C1.28105 19.4684 1.27369 19.4892 1.26977 19.5037C1.26372 19.5261 1.25623 19.5629 1.26533 19.6049C1.27534 19.6512 1.30189 19.6885 1.33764 19.716C1.40829 19.7704 1.48028 19.7675 1.52977 19.7576C1.54359 19.7548 1.56213 19.7499 1.57302 19.747C1.57637 19.7462 1.57899 19.7455 1.58053 19.7451C1.5863 19.7436 1.59016 19.7429 1.59301 19.7424C1.59552 19.742 1.59659 19.742 1.59664 19.742H1.61611L1.63467 19.736L4.63074 18.7786L4.63079 18.7788L4.63706 18.7764C4.72478 18.7431 4.81907 18.7308 4.91239 18.7405C5.00571 18.7502 5.09548 18.7816 5.1745 18.8322L5.17448 18.8322L5.17726 18.8339C6.32413 19.527 7.60838 19.9614 8.94037 20.1068C10.0677 20.241 11.2102 20.1632 12.309 19.8775C14.3069 19.3597 16.0768 18.1938 17.3416 16.5622C18.6062 14.9309 19.2945 12.9263 19.2989 10.8619C19.3071 10.4205 19.2761 9.97929 19.2062 9.54342C18.909 7.3233 17.7993 5.29233 16.0919 3.84337C14.9684 2.82795 13.6065 2.11307 12.1329 1.76518C10.6594 1.41731 9.12187 1.44767 7.66322 1.85341C6.34321 2.16993 5.11177 2.78081 4.06094 3.64042C3.00992 4.50017 2.16677 5.58649 1.59452 6.81813C0.772468 8.4781 0.481485 10.3511 0.761157 12.1824C0.936741 13.4667 1.38751 14.6979 2.08264 15.7918Z" fill="#121617" stroke="#121617" stroke-width="0.25"/>
<path d="M8.36903 15.1181L8.36767 15.1171C6.65921 13.8418 5.3451 12.0504 4.59478 9.97153L4.59478 9.97153L4.59439 9.97047C4.09352 8.62099 4.35702 7.33947 5.06373 6.14596C5.2144 5.89366 5.38236 5.6537 5.56619 5.42804L5.56623 5.42806L5.56824 5.42545C5.64428 5.32691 5.75147 5.26561 5.86618 5.25144L5.86622 5.25179L5.87549 5.24993C6.10589 5.20361 6.33997 5.1817 6.57434 5.1845L6.57434 5.18464L6.5803 5.18443C6.68344 5.18074 6.78609 5.20632 6.87787 5.25922C6.96973 5.31215 7.04777 5.3908 7.10322 5.48796L7.1035 5.48846C7.49939 6.1748 7.84825 6.89087 8.14732 7.63108L8.14751 7.63155C8.22272 7.81553 8.25278 8.01735 8.23455 8.21771C8.21632 8.41806 8.15047 8.60957 8.04385 8.77412L8.04371 8.77403L8.04055 8.7795C7.91055 9.00422 7.7553 9.21084 7.57837 9.39478C7.51045 9.45697 7.46563 9.54081 7.44965 9.63176C7.43377 9.72216 7.44699 9.81585 7.48772 9.8979C7.6522 10.3118 7.88617 10.6906 8.17845 11.0157C8.96319 11.9014 9.87273 12.6515 10.8745 13.2388C10.9454 13.2817 11.0091 13.3178 11.0674 13.341C11.1277 13.365 11.1913 13.379 11.2596 13.3679C11.327 13.3569 11.3832 13.3239 11.4334 13.2841C11.4827 13.2451 11.5348 13.1925 11.5927 13.1318L11.5928 13.1318L11.5954 13.1289C11.9111 12.777 12.1988 12.3977 12.4556 11.9951L12.4559 11.9953L12.4604 11.987C12.533 11.8516 12.6492 11.7524 12.7842 11.7061C12.919 11.66 13.0649 11.6692 13.1941 11.7325L13.194 11.7328L13.2023 11.7362C13.3589 11.7992 13.5074 11.8834 13.6443 11.9869L13.6442 11.987L13.6489 11.9902L13.71 12.0321C14.2831 12.4254 14.8637 12.8238 15.4646 13.1927L15.4714 13.1969L15.4788 13.2002C15.5472 13.2309 15.6044 13.2892 15.6368 13.3657C15.6692 13.4423 15.6734 13.5297 15.6482 13.6097L15.6452 13.6191L15.6438 13.6289C15.5491 14.2669 15.3078 14.8693 14.9422 15.3824C14.703 15.6893 14.4099 15.9425 14.0799 16.1279C13.7493 16.3136 13.3879 16.4277 13.0165 16.4638L13.0165 16.4636L13.0098 16.4647C12.7944 16.4974 12.577 16.5136 12.3595 16.513C10.9272 16.499 9.53326 16.0122 8.36903 15.1181ZM12.4565 16.0074L12.4595 16.0074C12.6044 16.0036 12.7491 15.9914 12.8928 15.9707C13.4448 15.9378 13.9679 15.7025 14.3739 15.3064C14.7794 14.9109 15.0433 14.3796 15.1229 13.8027C15.137 13.7448 15.1329 13.6834 15.1108 13.6278L14.9946 13.6741L15.1108 13.6278C15.0883 13.5713 15.0479 13.5228 14.9946 13.4915C14.7517 13.324 14.5095 13.1631 14.2657 13.0011C13.9361 12.7822 13.6035 12.5612 13.262 12.3191L13.262 12.3191L13.2593 12.3173C13.1762 12.2615 13.0789 12.2185 12.9734 12.2458C12.8731 12.2717 12.8043 12.3523 12.7505 12.4336L12.7504 12.4335L12.748 12.4375C12.47 12.8938 12.1306 13.3036 11.741 13.6538L11.7409 13.6537L11.7373 13.6573C11.6105 13.7809 11.4507 13.8562 11.2824 13.8736C11.1142 13.891 10.9446 13.8498 10.7988 13.7551L10.7991 13.7547L10.7898 13.7497C9.5298 13.0739 8.41661 12.1221 7.52299 10.956L7.52253 10.9554C7.24466 10.5972 7.05053 10.1728 6.95689 9.71732L6.95693 9.71732L6.95626 9.71443C6.93758 9.63333 6.93907 9.54835 6.96054 9.46813C6.98202 9.38792 7.02252 9.31594 7.07724 9.25897L7.07725 9.25899L7.07864 9.25749C7.27207 9.04937 7.44999 8.8256 7.61083 8.58823C7.69579 8.47142 7.74822 8.3325 7.76307 8.18704C7.77797 8.04116 7.75459 7.89349 7.69515 7.76036C7.4406 7.16594 7.15572 6.58682 6.84179 6.02558L6.84211 6.0254L6.83685 6.01748C6.77975 5.93144 6.70489 5.85939 6.61729 5.80713C6.52965 5.75485 6.43167 5.72383 6.33052 5.71682C6.22936 5.7098 6.12821 5.72701 6.03458 5.76691C5.94099 5.80679 5.85765 5.86816 5.79028 5.94594L5.79008 5.94577L5.78519 5.95222C5.50487 6.32162 5.27547 6.73153 5.10378 7.16954C4.92112 7.58066 4.81995 8.02724 4.80637 8.48146C4.79276 8.93661 4.86737 9.39002 5.02572 9.81334C5.68994 11.6025 6.77674 13.1788 8.1814 14.3888C9.38738 15.4382 10.8979 16.0107 12.4565 16.0074Z" fill="#121617" stroke="#121617" stroke-width="0.25"/>
</svg>
