<svg width="26" height="26" viewBox="0 0 26 26" fill="none" xmlns="http://www.w3.org/2000/svg">
<g clip-path="url(#clip0_36_4072)">
<path d="M0.850037 14.4282C0.850037 13.718 0.850037 13.0077 0.850037 12.2691C0.90679 11.8714 0.963544 11.4736 1.0203 11.0759C1.84323 6.38841 5.44709 2.49636 10.0441 1.24636C10.7819 1.07591 11.5197 0.962269 12.2575 0.848633C12.9669 0.848633 13.6764 0.848633 14.4142 0.848633C14.8966 0.93386 15.4074 0.962269 15.8898 1.07591C20.7706 2.24068 23.9488 5.25204 25.4244 10.0532C25.6514 10.7918 25.7365 11.5589 25.85 12.3259C25.85 13.0077 25.85 13.6895 25.85 14.3714C25.7933 14.7975 25.7649 15.2236 25.6514 15.6498C24.5447 20.6498 21.5651 23.8884 16.6843 25.4225C15.9181 25.6498 15.152 25.7634 14.3574 25.8486C13.6764 25.8486 12.9953 25.8486 12.3143 25.8486C11.917 25.7918 11.4914 25.7634 11.0941 25.6782C6.07138 24.5986 2.80804 21.5873 1.27569 16.7009C1.04867 15.9623 0.963544 15.1952 0.850037 14.4282ZM21.026 13.093C21.026 12.7805 21.026 12.4395 20.9692 12.0702C20.3449 7.95091 16.5424 5.16681 12.4562 5.79181C7.40509 6.58727 4.65253 12.127 7.03619 16.6441C7.12132 16.8145 7.1497 16.9566 7.09294 17.1555C6.7808 18.235 6.49703 19.3145 6.21326 20.3941C6.12813 20.7066 6.15651 20.7066 6.44028 20.6214C7.57535 20.3373 8.68205 20.0248 9.81712 19.7407C9.98738 19.6839 10.1293 19.7123 10.2711 19.7975C11.7184 20.5077 13.2223 20.7634 14.8114 20.5077C18.5572 19.8827 21.0827 16.6157 21.026 13.093Z" fill="white"/>
<path d="M13.6764 19.3711C12.4562 19.3711 11.4062 19.087 10.413 18.5188C10.2428 18.4052 10.1009 18.4052 9.90225 18.462C9.30633 18.6325 8.68204 18.7745 8.08613 18.945C7.83074 19.0018 7.80236 19.0018 7.85911 18.7461C8.02937 18.1211 8.19964 17.5245 8.3699 16.8995C8.39827 16.7575 8.39827 16.6438 8.31314 16.5018C7.57534 15.337 7.23482 14.0586 7.34833 12.6666C7.57534 10.2802 8.76717 8.51883 10.9238 7.4961C14.6979 5.70633 19.1247 8.0927 19.749 12.2404C20.2598 15.6495 17.8478 18.8597 14.4425 19.3427C14.1588 19.3711 13.875 19.3711 13.6764 19.3711ZM15.5492 16.7007C15.6344 16.7007 15.6911 16.7007 15.7763 16.7007C16.5992 16.6438 17.2518 16.0757 17.3654 15.2518C17.3937 15.0813 17.3937 14.9109 17.1951 14.8257C16.7127 14.5984 16.2019 14.3427 15.7195 14.1154C15.5492 14.0302 15.4074 14.087 15.2938 14.2291C15.1236 14.4563 14.9533 14.6552 14.7831 14.8825C14.6696 15.0245 14.5277 15.0813 14.3574 14.9961C13.2507 14.57 12.3994 13.8029 11.7751 12.7802C11.69 12.6382 11.69 12.4961 11.8035 12.3825C11.9454 12.1836 12.0873 12.0132 12.2291 11.8143C12.3143 11.6722 12.3427 11.5302 12.2859 11.3882C12.0873 10.9336 11.917 10.4791 11.7184 10.0245C11.6616 9.91088 11.6049 9.82565 11.4913 9.76883C11.1508 9.62679 10.6968 9.71201 10.4414 9.99611C10.1576 10.2802 9.959 10.6211 9.87387 11.0188C9.76036 11.6154 9.87387 12.1836 10.1576 12.695C10.9522 14.087 11.9738 15.2802 13.421 16.0472C14.0736 16.3882 14.7831 16.6722 15.5492 16.7007Z" fill="white"/>
</g>
<defs>
<clipPath id="clip0_36_4072">
<rect width="25" height="25" fill="white" transform="translate(0.850006 0.848633)"/>
</clipPath>
</defs>
</svg>
